<svg width="255" height="257" viewBox="0 0 255 257" fill="none" xmlns="http://www.w3.org/2000/svg">
<path d="M144.261 215.6L119.2 229.343C119.2 229.343 107.458 219.026 108.644 206.55C111.063 181.099 88.6882 180.754 79.3368 179.199C65.2333 176.857 55.423 169.218 63.7608 156.205C73.1982 141.473 50.6899 128.383 27.3689 127.903C4.55463 127.423 -7.77042 86.4344 41.7115 82.9219C71.2572 80.8201 81.2492 108.008 89.5488 120.532C97.8483 133.057 117.918 123.46 119.993 143.181C121.762 160.024 116.388 175.965 129.784 180.869C143.171 185.754 149.788 195.859 144.261 215.6Z" fill="url(#paint0_linear)"/>
<g opacity="0.5">
<path opacity="0.5" d="M134.68 223.882L134.106 224.074C133.992 223.719 122.145 188.124 99.8085 156.396C79.2316 127.164 45.2684 95.3306 0.356966 109.64L0.175293 109.064C20.1689 102.692 39.6939 104.774 58.1958 115.264C72.9783 123.642 87.1488 137.365 100.315 156.06C122.699 187.855 134.565 223.527 134.68 223.882Z" fill="#BEB8F2"/>
<path opacity="0.5" d="M65.74 119.976L65.1758 120.196C57.8037 101.463 37.5902 80.2057 37.3799 79.985L37.8102 79.5627C38.0205 79.7835 58.3201 101.137 65.74 119.976Z" fill="#BEB8F2"/>
<path opacity="0.5" d="M53.2141 113.335C29.3385 111.962 15.6079 126.435 15.474 126.578L15.0342 126.166C15.168 126.012 29.0803 111.338 53.2524 112.73L53.2141 113.335Z" fill="#BEB8F2"/>
<path opacity="0.5" d="M113.291 177.932C93.7464 156.137 56.4748 168.604 56.1306 168.757L55.8533 168.22C56.1879 168.038 94.0237 155.542 113.74 177.529L113.291 177.932Z" fill="#BEB8F2"/>
<path opacity="0.5" d="M107.678 167.241L107.104 167.414C101.683 149.515 113.032 128.93 113.157 128.719L113.683 129.016C113.558 129.218 102.333 149.592 107.678 167.241Z" fill="#BEB8F2"/>
<path opacity="0.5" d="M132.127 218.508C126.056 209.18 108.003 209.065 107.821 209.065V208.46C108.577 208.46 126.39 208.575 132.634 218.172L132.127 218.508Z" fill="#BEB8F2"/>
<path opacity="0.5" d="M129.431 210.043L128.857 210.235C126.008 201.905 132.863 187.126 135.11 182.27C135.426 181.579 135.703 180.993 135.732 180.878L136.315 181.013C136.277 181.176 136.095 181.569 135.655 182.529C133.437 187.337 126.658 201.944 129.431 210.043Z" fill="#BEB8F2"/>
</g>
<path d="M91.7384 117.759C88.5066 123.373 90.8205 129.218 93.1631 133.181C93.7846 133.21 94.1289 133.383 94.7504 133.555C100.325 135.072 103.021 134.525 108.739 135.149C109.973 135.283 113.711 134.573 115.212 134.179L118.014 133.412C118.014 133.412 123.828 119.669 116.446 115.513C109.064 111.348 112.937 97.6051 114.094 90.0619C114.801 85.4361 113.654 83.0849 113.635 81.3478C113.51 62.8928 119.324 57.7392 115.614 51.7603C111.522 45.1671 103.27 49.5625 98.4317 42.6239C92.9719 34.7832 99.8277 23.9194 93.0102 17.6621C91.8436 16.5873 90.6102 15.522 88.6213 14.8214C83.697 13.094 79.4899 15.8003 76.1337 11.4817C69.4022 2.81557 57.7465 -0.677738 50.0971 7.65246C42.5433 15.8771 49.8676 33.1421 70.0046 47.6048C83.1711 59.5242 83.1616 62.9312 81.4978 71.1654C80.3313 76.9332 73.3799 91.7989 81.4022 98.1809C89.4341 104.553 95.4388 111.338 91.7384 117.759Z" fill="url(#paint1_linear)"/>
<g opacity="0.5">
<path opacity="0.5" d="M105.737 135.235L106.158 135.206C106.005 132.865 105.823 130.494 105.603 128.181C104.025 111.031 100.784 94.6781 95.9743 79.5629C91.8914 66.7509 86.6325 54.6586 80.3313 43.6125C75.2636 34.7257 69.4979 26.4723 63.1967 19.0634C58.7696 13.8618 54.1226 9.13048 49.3896 5.00377C48.5672 4.28399 47.678 3.59301 46.8175 2.92122C45.67 2.0287 44.494 1.10739 43.4517 0.118896L43.1458 0.39721C44.2071 1.40489 45.3928 2.3358 46.5497 3.22832C47.4007 3.89052 48.29 4.5815 49.1027 5.29168C53.8262 9.40879 58.4541 14.1209 62.8716 19.3129C69.1536 26.693 74.9098 34.9368 79.9679 43.8044C86.2596 54.8314 91.509 66.9044 95.5822 79.6876C100.392 94.7741 103.624 111.108 105.201 128.229C105.402 130.533 105.584 132.893 105.737 135.235Z" fill="#FCFDFE"/>
<path opacity="0.5" d="M87.0246 57.5379L87.4166 57.3843C80.7425 41.7316 89.4532 13.67 89.5393 13.3917L89.1281 13.2861C89.0421 13.574 80.2931 41.7604 87.0246 57.5379Z" fill="#FCFDFE"/>
<path opacity="0.5" d="M101.53 102.922L101.941 102.816C98.7567 91.6647 77.2619 82.2788 77.0515 82.1829L76.8699 82.538C77.0802 82.6339 98.3933 91.943 101.53 102.922Z" fill="#FCFDFE"/>
<path opacity="0.5" d="M102.744 109.41L103.165 109.371C102.505 101.838 105.938 91.1465 112.832 79.2846C113.176 78.6896 113.176 78.6896 113.176 78.6129L112.755 78.6512L112.965 78.632L112.765 78.5745C112.746 78.6129 112.612 78.8432 112.468 79.1023C105.526 91.0314 102.084 101.799 102.744 109.41Z" fill="#FCFDFE"/>
<path opacity="0.5" d="M105.392 130.955L105.785 130.801C102.534 123.085 89.8834 119.582 89.7495 119.544L89.6252 119.928C89.7591 119.966 102.218 123.421 105.392 130.955Z" fill="#FCFDFE"/>
<path opacity="0.5" d="M106.377 135.293C108.414 128.805 112.516 122.615 118.903 116.358L118.597 116.089C112.162 122.385 108.032 128.632 105.976 135.187L106.377 135.293Z" fill="#FCFDFE"/>
<path opacity="0.5" d="M66.4956 23.718L66.8781 23.5452C62.6422 15.0423 60.3283 5.15739 59.5729 1.9136C59.3913 1.12665 59.3243 0.848336 59.2861 0.761963L58.894 0.915515C58.9227 0.982694 59.0279 1.43375 59.1618 2.00957C59.9267 5.27255 62.2406 15.1863 66.4956 23.718Z" fill="#FCFDFE"/>
<path opacity="0.5" d="M75.5887 36.549L75.9042 36.2803C69.5648 29.8023 50.5848 29.2265 49.7816 29.2073L49.7625 29.6008C49.9632 29.6103 69.3736 30.1958 75.5887 36.549Z" fill="#FCFDFE"/>
</g>
<path d="M106.043 178.201C107.467 177.846 104.895 170.552 107.993 160.475C108.768 157.961 112.038 143.93 122.709 142.298C124.784 141.982 126.849 141.665 128.924 141.348C130.176 136.454 130.444 131.607 123.923 130.542C113.797 128.891 111.894 112.481 114.008 106.348C116.618 98.7569 122.307 80.9832 106.712 78.1905C93.7271 75.868 84.7773 76.9237 82.3295 61.6069C79.8817 46.2901 70.0523 37.7008 55.4324 40.3399C40.0476 43.1135 25.3608 25.0039 13.3321 33.0366C-7.60803 47.029 15.8564 78.6703 43.748 85.3786C71.63 92.0869 57.144 103.095 57.6985 115.792C57.8133 116.972 58.0906 118.786 58.8173 120.859C63.3017 133.661 77.2331 134.343 88.2674 143.968C103.298 157.116 103.643 178.786 106.043 178.201Z" fill="url(#paint2_linear)"/>
<g opacity="0.5">
<path opacity="0.5" d="M109.762 142.366L110.46 142.145C94.6737 93.6321 54.0555 53.2767 4.45885 36.8179L4.20068 37.4801C53.5965 53.8621 94.0426 94.0544 109.762 142.366Z" fill="#FCFDFE"/>
<path opacity="0.5" d="M98.7565 116.674L99.4832 116.588C97.3892 96.6358 113.73 78.9198 113.902 78.747L113.357 78.2864C113.195 78.4687 96.6243 96.4055 98.7565 116.674Z" fill="#FCFDFE"/>
<path opacity="0.5" d="M106.597 133.527L107.209 133.124C95.2283 116.531 56.2739 118.652 55.8818 118.68L55.9105 119.381C56.293 119.343 94.8459 117.25 106.597 133.527Z" fill="#FCFDFE"/>
<path opacity="0.5" d="M68.2546 76.5686L68.8952 76.2135C60.6243 62.2979 68.3598 38.4302 68.4363 38.1902L67.7383 37.9983C67.6618 38.2286 59.8307 62.3939 68.2546 76.5686Z" fill="#FCFDFE"/>
<path opacity="0.5" d="M42.4763 55.935L42.8014 55.3016C25.3991 47.6911 0.557687 56.031 0.309082 56.1173L0.538564 56.7795C0.787169 56.6836 25.3417 48.4397 42.4763 55.935Z" fill="#FCFDFE"/>
</g>
<path d="M88.6597 17.5085V237.462L237.211 227.452C240.586 227.251 243.196 224.794 243.196 221.829V25.5124C243.196 22.4606 240.423 19.9654 236.943 19.879L88.6597 17.5085Z" fill="url(#paint3_linear)"/>
<path d="M81.1152 24.0056V230.946L230.345 221.454C233.52 221.262 235.977 218.949 235.977 216.166V31.4721C235.977 28.6026 233.367 26.2513 230.087 26.1745L81.1152 24.0056Z" fill="url(#paint4_linear)"/>
<path d="M253.752 73.5646H237.249V31.9424H253.752C254.03 31.9424 254.25 32.1631 254.25 32.4414V73.0655C254.25 73.3438 254.03 73.5646 253.752 73.5646Z" fill="url(#paint5_linear)"/>
<path d="M79.4133 23.7465V231.934C79.4133 235.12 82.0619 237.827 85.6571 238.316L205.647 254.602C209.415 255.025 212.742 252.462 212.742 249.142V19.2455C212.742 16.1457 209.826 13.6601 206.288 13.7368L86.5368 17.2877C82.5687 17.4125 79.4133 20.2628 79.4133 23.7465Z" fill="url(#paint6_linear)"/>
<path opacity="0.3" d="M135.177 190.418C133.447 166.108 150.648 160.302 147.751 131.933C143.553 90.8583 104.838 77.1442 108.051 43.3436C109.055 32.7869 113.816 23.7081 119.525 16.3088L86.5368 17.2877C82.5591 17.4029 79.4133 20.2628 79.4133 23.7369V231.925C79.4133 235.111 82.0619 237.817 85.6571 238.307L178.1 250.85C145.848 227.52 136.344 206.828 135.177 190.418Z" fill="url(#paint7_linear)"/>
<path d="M231.273 175.831C211.461 200.111 191.649 224.382 171.846 248.663C143.563 186.484 58.234 194.219 29.9504 132.04C49.7623 107.759 69.5742 83.4887 89.3766 59.2083C117.66 121.387 202.989 113.652 231.273 175.831Z" fill="url(#paint8_linear)"/>
<path d="M172.793 236.435C142.807 183.719 67.834 186.137 37.8484 133.412C54.7057 112.749 71.5726 92.0869 88.4299 71.4246C118.415 124.141 193.389 121.722 223.375 174.448C206.517 195.111 189.65 215.773 172.793 236.435Z" fill="url(#paint9_linear)"/>
<path d="M97.246 82.346C97.026 82.6147 96.8157 82.8546 96.5766 83.1041C96.5575 83.1233 96.5384 83.1425 96.5193 83.1713C93.842 86.0024 90.438 87.3364 87.1679 87.0293C84.3185 86.7606 81.5838 85.2251 79.5568 82.298C79.2603 81.8757 78.983 81.4055 78.7249 80.9256C77.7305 79.0926 77.0611 76.9908 76.6882 74.7547C80.9145 69.5724 85.1504 64.3804 89.3767 59.198C92.379 65.8103 96.0316 71.6261 100.191 76.8277C99.6555 78.7087 98.5846 80.7145 97.246 82.346Z" fill="url(#paint10_linear)"/>
<path d="M45.4882 145.782C44.1018 147.49 42.5623 148.623 40.7073 149.583C36.5767 144.41 32.9528 138.613 29.96 132.039C34.2914 126.732 38.6229 121.425 42.9448 116.127C44.14 117.346 45.2683 118.891 46.2627 120.724C46.5304 121.204 46.779 121.703 47.0085 122.212C50.489 129.717 50.5368 138.94 46.0045 145.12C45.9854 145.139 45.9663 145.168 45.9472 145.197C45.8038 145.379 45.6412 145.59 45.4882 145.782Z" fill="url(#paint11_linear)"/>
<path d="M231.272 175.83C227.046 181.013 222.81 186.205 218.584 191.387C217.389 190.168 216.26 188.623 215.266 186.79C214.998 186.301 214.75 185.811 214.52 185.303C211.078 177.875 210.973 168.786 215.362 162.606C215.562 162.318 215.744 162.078 215.964 161.809C217.303 160.178 218.938 158.844 220.458 158.201C224.617 163.402 228.261 169.228 231.272 175.83Z" fill="url(#paint12_linear)"/>
<path d="M184.831 232.75C180.5 238.057 176.168 243.364 171.846 248.662C168.853 242.088 165.23 236.291 161.099 231.119C161.893 228.825 162.81 226.954 164.206 225.245C164.359 225.053 164.532 224.852 164.694 224.669C164.713 224.65 164.732 224.621 164.751 224.602C167.257 221.848 170.431 220.418 173.548 220.456C176.675 220.495 179.735 222.021 181.943 225.216C182.24 225.639 182.527 226.09 182.785 226.579C183.779 228.422 184.458 230.514 184.831 232.75Z" fill="url(#paint13_linear)"/>
<path d="M155.611 166.425C146.125 178.047 127.49 181.579 113.424 174.986C99.359 168.393 96.1749 152.99 105.746 141.252C115.231 129.63 133.867 126.099 147.933 132.692C161.998 139.285 165.182 154.698 155.611 166.425Z" fill="url(#paint14_linear)"/>
<path d="M138.83 158.047C138.342 156.013 136.956 153.911 134.116 151.492C135.522 149.765 136.927 148.047 138.333 146.32C138.447 146.387 138.572 146.454 138.686 146.521C139.834 147.183 140.876 147.942 141.737 148.748C142.234 149.208 142.702 149.707 143.123 150.216C143.592 150.792 144.586 150.782 145.15 150.216C145.858 149.506 146.565 148.796 147.263 148.086C147.703 147.634 147.713 147.001 147.292 146.588C146.594 145.897 145.8 145.216 145.035 144.592C143.984 143.748 142.884 142.961 141.689 142.231C142.176 141.627 142.674 141.022 143.161 140.427C143.592 139.899 143.525 139.208 142.941 138.863C142.358 138.517 141.584 138.68 141.144 139.218C140.647 139.832 140.14 140.446 139.643 141.061C136.612 139.611 133.781 139.007 131.228 139.304C128.656 139.602 126.533 140.773 124.86 142.826C123.244 144.803 122.68 146.809 123.177 148.834C123.675 150.849 125.224 152.932 127.815 155.072C126.247 156.982 124.669 158.901 123.101 160.811C121.8 160.072 120.605 159.237 119.515 158.297C118.817 157.702 118.167 157.059 117.555 156.377C117.039 155.792 115.987 155.792 115.404 156.387C114.505 157.308 113.616 158.23 112.717 159.151C112.267 159.612 112.287 160.255 112.736 160.667C113.482 161.349 114.294 162.001 115.155 162.615C116.322 163.45 117.641 164.256 119.047 165.005C119.219 165.091 119.391 165.187 119.563 165.274C119.028 165.926 118.492 166.589 117.957 167.241C117.526 167.769 117.593 168.45 118.215 168.757C118.224 168.757 118.224 168.767 118.234 168.767C118.855 169.065 119.62 168.892 120.051 168.364C120.596 167.702 121.131 167.04 121.676 166.368C123.923 167.299 126.075 167.807 128.082 167.875C128.953 167.913 129.813 167.865 130.635 167.731C133.351 167.308 135.522 166.051 137.214 163.978C138.782 162.049 139.308 160.072 138.83 158.047ZM129.66 156.579C130.502 157.395 131.094 158.201 131.238 158.921C131.381 159.631 131.18 160.341 130.616 161.041C129.995 161.809 129.211 162.251 128.302 162.404C127.394 162.558 126.438 162.385 125.357 161.867C126.792 160.091 128.226 158.335 129.66 156.579ZM130.827 147.874C130.664 147.222 130.836 146.588 131.333 145.974C131.869 145.322 132.557 144.938 133.408 144.813C134.259 144.688 135.292 144.871 136.2 145.226C134.91 146.809 133.619 148.393 132.328 149.976C131.458 149.208 130.989 148.527 130.827 147.874Z" fill="url(#paint15_linear)"/>
<path opacity="0.2" d="M172.038 248.432C171.971 248.508 171.913 248.585 171.846 248.672C143.563 186.483 58.234 194.218 29.9504 132.039C49.3416 108.277 68.7328 84.5149 88.124 60.7432C88.5064 64.1789 88.7455 67.8929 88.6977 71.9045C88.6403 76.5302 88.2196 81.5495 87.1678 87.0293C86.0013 93.1234 84.0794 99.7837 81.01 107.173C65.8069 143.69 78.8395 154.093 100.774 160.283C106.588 161.982 112.994 163.45 119.496 165.226C122.355 166.013 125.243 166.886 128.111 167.865C133.724 169.784 139.26 172.107 144.404 174.909C161.998 184.093 173.96 200.312 173.539 220.456C173.51 224.151 173.099 227.913 172.305 231.694C172.095 232.683 171.942 233.71 171.837 234.794C171.435 238.729 171.627 243.288 172.038 248.432Z" fill="url(#paint16_linear)"/>
<path d="M231.196 169.218C211.384 193.498 191.572 217.769 171.77 242.05C143.486 179.871 58.1576 187.606 29.8835 125.417C49.6954 101.137 69.5073 76.8661 89.3097 52.5857C117.584 114.774 202.922 107.039 231.196 169.218Z" fill="url(#paint17_linear)"/>
<path d="M172.717 229.823C142.731 177.107 67.7575 179.525 37.772 126.799C54.6293 106.137 71.4962 85.4746 88.3535 64.8123C118.339 117.538 193.313 115.12 223.298 167.836C206.441 188.498 189.583 209.161 172.717 229.823Z" fill="white"/>
<path d="M97.1695 75.7337C96.9496 76.0024 96.7392 76.2423 96.5002 76.4918C96.4811 76.511 96.4619 76.5302 96.4428 76.559C93.7655 79.3901 90.3616 80.7241 87.0915 80.417C84.2421 80.1483 81.5074 78.6128 79.4803 75.6857C79.1839 75.2634 78.9066 74.7932 78.6485 74.3133C77.654 72.4803 76.9847 70.3785 76.6118 68.1424C80.8381 62.9601 85.0739 57.7681 89.3002 52.5857C92.3026 59.198 95.9552 65.0138 100.115 70.2154C99.5886 72.0964 98.5081 74.1022 97.1695 75.7337Z" fill="url(#paint18_linear)"/>
<path d="M45.4118 139.17C44.0253 140.878 42.4859 142.011 40.6309 142.97C36.5003 137.797 32.8764 132.001 29.8835 125.427C34.215 120.12 38.5465 114.813 42.8684 109.515C44.0636 110.734 45.1919 112.279 46.1863 114.112C46.454 114.592 46.7026 115.091 46.9321 115.6C50.4126 123.104 50.4604 132.327 45.9281 138.508C45.909 138.527 45.8899 138.556 45.8707 138.584C45.7369 138.767 45.5648 138.978 45.4118 139.17Z" fill="url(#paint19_linear)"/>
<path d="M231.196 169.218C226.97 174.4 222.734 179.592 218.508 184.775C217.313 183.556 216.184 182.011 215.19 180.178C214.922 179.688 214.674 179.199 214.444 178.69C211.002 171.262 210.897 162.174 215.286 155.993C215.486 155.705 215.668 155.466 215.888 155.197C217.227 153.565 218.862 152.231 220.382 151.588C224.541 156.79 228.194 162.615 231.196 169.218Z" fill="url(#paint20_linear)"/>
<path d="M184.755 226.138C180.423 231.445 176.092 236.752 171.77 242.05C168.777 235.476 165.153 229.679 161.023 224.507C161.816 222.213 162.734 220.341 164.13 218.633C164.283 218.441 164.455 218.24 164.618 218.057C164.637 218.038 164.656 218.009 164.675 217.99C167.18 215.236 170.355 213.806 173.472 213.844C176.599 213.883 179.658 215.409 181.867 218.604C182.164 219.027 182.45 219.478 182.709 219.967C183.713 221.81 184.382 223.902 184.755 226.138Z" fill="url(#paint21_linear)"/>
<path d="M155.544 159.813C146.058 171.435 127.423 174.967 113.357 168.374C99.2921 161.78 96.108 146.377 105.679 134.64C115.165 123.018 133.8 119.486 147.866 126.08C161.931 132.673 165.115 148.086 155.544 159.813Z" fill="url(#paint22_linear)"/>
<path d="M138.753 151.435C138.266 149.4 136.879 147.299 134.04 144.88C135.445 143.153 136.851 141.435 138.256 139.707C138.371 139.775 138.495 139.842 138.61 139.909C139.757 140.571 140.8 141.329 141.66 142.135C142.157 142.596 142.626 143.095 143.047 143.604C143.515 144.18 144.51 144.17 145.074 143.604C145.781 142.894 146.489 142.183 147.187 141.473C147.627 141.022 147.636 140.389 147.216 139.976C146.518 139.285 145.724 138.604 144.959 137.98C143.907 137.135 142.808 136.348 141.612 135.619C142.1 135.014 142.597 134.41 143.085 133.815C143.515 133.287 143.448 132.596 142.865 132.251C142.282 131.905 141.507 132.068 141.067 132.606C140.57 133.22 140.063 133.834 139.566 134.448C136.535 132.999 133.705 132.394 131.152 132.692C128.58 132.989 126.457 134.16 124.784 136.214C123.168 138.191 122.604 140.197 123.101 142.222C123.598 144.237 125.147 146.32 127.738 148.46C126.17 150.37 124.593 152.289 123.024 154.199C121.724 153.46 120.529 152.625 119.439 151.684C118.741 151.089 118.091 150.446 117.479 149.765C116.962 149.18 115.911 149.18 115.327 149.775C114.428 150.696 113.539 151.617 112.64 152.538C112.191 152.999 112.21 153.642 112.66 154.055C113.405 154.736 114.218 155.389 115.079 156.003C116.245 156.838 117.565 157.644 118.97 158.393C119.142 158.479 119.314 158.575 119.487 158.661C118.951 159.314 118.416 159.976 117.88 160.629C117.45 161.157 117.517 161.838 118.138 162.145C118.148 162.145 118.148 162.155 118.158 162.155C118.779 162.452 119.544 162.279 119.974 161.752C120.519 161.089 121.055 160.427 121.6 159.755C123.847 160.686 125.998 161.195 128.006 161.262C128.876 161.3 129.737 161.253 130.559 161.118C133.275 160.696 135.445 159.439 137.138 157.366C138.715 155.437 139.241 153.46 138.753 151.435ZM129.584 149.966C130.425 150.782 131.018 151.588 131.161 152.308C131.305 153.018 131.104 153.729 130.54 154.429C129.918 155.197 129.134 155.638 128.226 155.792C127.318 155.945 126.361 155.773 125.281 155.254C126.715 153.479 128.15 151.723 129.584 149.966ZM130.76 141.262C130.597 140.609 130.769 139.976 131.267 139.362C131.802 138.709 132.491 138.325 133.342 138.201C134.193 138.076 135.225 138.258 136.134 138.613C134.843 140.197 133.552 141.78 132.261 143.364C131.381 142.596 130.922 141.915 130.76 141.262Z" fill="white"/>
<path opacity="0.2" d="M171.961 241.819C171.894 241.896 171.837 241.973 171.77 242.059C143.486 179.88 58.1576 187.615 29.8835 125.427C49.2747 101.665 68.6659 77.9026 88.0571 54.1309C88.4395 57.5666 88.6786 61.2806 88.6308 65.2922C88.5734 69.9179 88.1527 74.9372 87.1009 80.417C85.9344 86.5111 84.0125 93.1714 80.9431 100.561C65.74 137.078 78.7726 147.481 100.707 153.671C106.521 155.37 112.927 156.838 119.429 158.613C122.288 159.4 125.176 160.274 128.044 161.253C133.657 163.172 139.193 165.494 144.337 168.297C161.931 177.481 173.893 193.7 173.472 213.844C173.443 217.539 173.032 221.301 172.238 225.082C172.028 226.071 171.875 227.098 171.77 228.182C171.368 232.117 171.56 236.675 171.961 241.819Z" fill="url(#paint23_linear)"/>
<path d="M25.8674 240.312V250.236C25.8674 253.441 45.8227 256.042 70.4251 256.042C95.0274 256.042 114.983 253.441 114.983 250.236V240.312H25.8674Z" fill="url(#paint24_linear)"/>
<path d="M114.992 240.313C114.992 243.518 95.0372 246.119 70.4348 246.119C45.8325 246.119 25.8772 243.518 25.8772 240.313C25.8772 237.107 45.8325 234.506 70.4348 234.506C95.0372 234.506 114.992 237.107 114.992 240.313Z" fill="url(#paint25_linear)"/>
<path d="M70.4252 246.522C48.634 246.522 25.8389 244.43 25.8389 240.399C25.8389 240.178 25.9154 239.785 26.1353 239.785C26.3552 239.785 26.2596 240.092 26.2596 240.313C26.2596 242.865 44.3982 245.716 70.4252 245.716C96.4522 245.716 114.591 242.865 114.591 240.313C114.591 240.092 114.629 239.881 114.849 239.881C115.069 239.881 115.011 240.178 115.011 240.399C115.011 244.43 92.2259 246.522 70.4252 246.522Z" fill="url(#paint26_linear)"/>
<path d="M66.2181 240.639C66.658 240.332 67.1169 240.034 67.6141 239.737C68.1113 239.439 68.752 239.17 69.5265 238.94C70.3105 238.7 71.2858 238.508 72.4619 238.355C73.638 238.201 75.1105 238.124 76.8603 238.115C78.5814 238.105 80.1974 238.163 81.7081 238.278C83.2189 238.393 84.5479 238.575 85.6954 238.806C86.8428 239.046 87.7702 239.334 88.4969 239.679C89.2141 240.025 89.6348 240.418 89.7782 240.869L94.7981 240.917C95.1615 240.917 95.4865 240.946 95.7638 241.004C96.0411 241.061 96.1846 241.138 96.1846 241.224V241.637L89.7304 241.57C89.5009 242.078 88.9272 242.539 87.9997 242.961C87.0818 243.384 85.8961 243.748 84.4619 244.055L82.1097 243.729C81.8993 243.7 81.7272 243.652 81.5934 243.604C81.4595 243.556 81.3926 243.499 81.3926 243.441C81.3926 243.364 81.5742 243.268 81.9376 243.172C82.3009 243.067 82.7121 242.942 83.1711 242.789C83.63 242.635 84.0794 242.462 84.5193 242.251C84.9591 242.05 85.2459 241.8 85.3989 241.512L70.1767 241.359C69.7751 241.656 69.3257 241.944 68.8285 242.232C68.3313 242.52 67.6715 242.769 66.8492 243C66.0269 243.23 65.0038 243.412 63.7894 243.556C62.5655 243.7 61.0261 243.777 59.1711 243.787C57.7751 243.796 56.4173 243.739 55.0883 243.624C53.7592 243.508 52.5735 243.345 51.5409 243.115C50.5082 242.894 49.6668 242.606 48.9974 242.28C48.3377 241.944 47.9648 241.57 47.8883 241.138L43.7576 241.099C43.3943 241.099 43.0692 241.071 42.7823 241.013C42.4955 240.956 42.3521 240.888 42.3521 240.792V240.38L48.003 240.437C48.2516 239.996 48.768 239.622 49.5425 239.295C50.3265 238.969 51.2827 238.681 52.411 238.432L54.3042 238.691C54.8779 238.767 55.1648 238.863 55.1648 238.979C55.1648 239.036 55.05 239.113 54.811 239.199C54.5719 239.286 54.2851 239.391 53.96 239.516C53.6349 239.641 53.3194 239.775 53.0229 239.938C52.717 240.101 52.4875 240.284 52.3345 240.495L66.2181 240.639ZM52.2867 241.205C52.4014 241.474 52.65 241.714 53.0325 241.906C53.415 242.107 53.8931 242.261 54.4668 242.395C55.0405 242.52 55.6907 242.616 56.3982 242.673C57.1154 242.731 57.8707 242.76 58.6548 242.76C59.5727 242.76 60.3663 242.712 61.0452 242.645C61.7241 242.568 62.3169 242.472 62.8333 242.337C63.3496 242.213 63.799 242.059 64.1815 241.896C64.5639 241.723 64.8986 241.541 65.2141 241.349L52.2867 241.205ZM85.4276 240.831C85.3129 240.552 85.0356 240.313 84.6053 240.111C84.175 239.9 83.6205 239.727 82.9511 239.593C82.2818 239.449 81.5073 239.343 80.6085 239.276C79.7193 239.209 78.744 239.17 77.6635 239.18C76.7073 239.18 75.885 239.228 75.1966 239.305C74.5081 239.382 73.9153 239.497 73.4085 239.631C72.9018 239.765 72.4715 239.929 72.1273 240.111C71.7735 240.293 71.4388 240.485 71.1424 240.696L85.4276 240.831Z" fill="#FCB048"/>
<path d="M70.4346 235.14C50.5654 235.14 29.8738 236.896 26.5654 240.293C26.6993 240.408 26.814 240.543 26.9288 240.677C29.7208 238.316 46.798 235.946 70.4346 235.946C94.6736 235.946 112.028 238.441 114.132 240.859C114.237 240.725 114.342 240.6 114.466 240.485C111.732 236.953 90.6577 235.14 70.4346 235.14Z" fill="url(#paint27_linear)"/>
<path d="M13.4758 229.89V239.813C13.4758 243.019 33.4311 245.62 58.0335 245.62C82.6453 245.62 102.591 243.019 102.591 239.813V229.89H13.4758Z" fill="url(#paint28_linear)"/>
<path d="M102.6 229.89C102.6 233.096 82.645 235.696 58.0427 235.696C33.4309 235.696 13.4851 233.096 13.4851 229.89C13.4851 226.685 33.4404 224.084 58.0427 224.084C82.6546 224.094 102.6 226.685 102.6 229.89Z" fill="url(#paint29_linear)"/>
<path d="M58.0429 236.099C36.2517 236.099 13.4565 234.007 13.4565 229.977C13.4565 229.756 13.533 229.362 13.753 229.362C13.9729 229.362 13.8773 229.669 13.8773 229.89C13.8773 232.443 32.0159 235.293 58.0429 235.293C84.0699 235.293 102.209 232.443 102.209 229.89C102.209 229.669 102.247 229.458 102.467 229.458C102.687 229.458 102.639 229.756 102.639 229.977C102.629 234.017 79.8341 236.099 58.0429 236.099Z" fill="url(#paint30_linear)"/>
<path d="M53.826 230.216C54.2659 229.909 54.7248 229.612 55.222 229.314C55.7193 229.017 56.3599 228.748 57.1344 228.518C57.9184 228.278 58.8937 228.086 60.0698 227.932C61.2459 227.779 62.7184 227.702 64.4682 227.692C66.1893 227.683 67.8053 227.74 69.316 227.856C70.8268 227.971 72.1559 228.153 73.3033 228.383C74.4507 228.623 75.3782 228.911 76.1049 229.257C76.822 229.602 77.2427 229.996 77.3861 230.447L82.406 230.495C82.7694 230.495 83.0945 230.524 83.3718 230.581C83.6491 230.639 83.7925 230.715 83.7925 230.802V231.215L77.3383 231.157C77.1088 231.666 76.5351 232.126 75.6076 232.548C74.6897 232.971 73.5041 233.335 72.0698 233.643L69.7176 233.316C69.5073 233.287 69.3352 233.239 69.2013 233.191C69.0674 233.144 69.0005 233.086 69.0005 233.028C69.0005 232.952 69.1822 232.856 69.5455 232.76C69.9089 232.654 70.32 232.529 70.779 232.376C71.2379 232.222 71.6873 232.049 72.1272 231.838C72.567 231.637 72.8539 231.387 73.0069 231.099L57.7846 230.946C57.383 231.243 56.9336 231.531 56.4364 231.819C55.9392 232.107 55.2794 232.357 54.4571 232.587C53.6348 232.817 52.6117 233 51.3974 233.144C50.1735 233.287 48.634 233.364 46.779 233.374C45.383 233.383 44.0253 233.326 42.6962 233.211C41.3671 233.096 40.1814 232.932 39.1488 232.702C38.1161 232.481 37.2747 232.193 36.6054 231.867C35.9456 231.531 35.5727 231.157 35.4962 230.725L31.3655 230.687C31.0022 230.687 30.6771 230.658 30.3902 230.6C30.1034 230.543 29.96 230.476 29.96 230.38V229.967L35.6109 230.025C35.8595 229.583 36.3759 229.209 37.1504 228.882C37.9344 228.556 38.8906 228.268 40.0189 228.019L41.9121 228.278C42.4858 228.355 42.7727 228.451 42.7727 228.566C42.7727 228.623 42.6579 228.7 42.4189 228.786C42.1798 228.873 41.893 228.978 41.5679 229.103C41.2428 229.228 40.9273 229.362 40.6308 229.525C40.3249 229.689 40.0954 229.871 39.9424 230.082L53.826 230.216ZM39.8946 230.783C40.0093 231.051 40.2579 231.291 40.6404 231.483C41.0229 231.685 41.501 231.838 42.0747 231.973C42.6484 232.097 43.2986 232.193 44.0061 232.251C44.7233 232.309 45.4786 232.337 46.2627 232.337C47.1806 232.337 47.9743 232.289 48.6531 232.222C49.332 232.145 49.9248 232.049 50.4412 231.915C50.9575 231.79 51.4069 231.637 51.7894 231.464C52.1719 231.291 52.5065 231.109 52.822 230.917L39.8946 230.783ZM73.0451 230.408C72.9304 230.13 72.6531 229.89 72.2228 229.689C71.7925 229.477 71.2379 229.305 70.5686 229.17C69.8993 229.026 69.1248 228.921 68.226 228.854C67.3368 228.786 66.3615 228.748 65.281 228.758C64.3248 228.758 63.5025 228.806 62.8141 228.882C62.1256 228.959 61.5328 229.074 61.026 229.209C60.5192 229.343 60.089 229.506 59.7447 229.689C59.391 229.871 59.0563 230.063 58.7599 230.274L73.0451 230.408Z" fill="#FCB048"/>
<path d="M58.0428 224.718C38.1735 224.718 17.4819 226.474 14.1736 229.871C14.3074 229.986 14.4222 230.121 14.5369 230.255C17.329 227.894 34.4062 225.524 58.0428 225.524C82.2817 225.524 99.6363 228.019 101.74 230.437C101.845 230.303 101.95 230.178 102.075 230.063C99.3399 226.541 78.2658 224.718 58.0428 224.718Z" fill="url(#paint31_linear)"/>
<path d="M24.1655 219.506V229.43C24.1655 232.635 44.1208 235.236 68.7232 235.236C93.335 235.236 113.281 232.635 113.281 229.43V219.506H24.1655Z" fill="url(#paint32_linear)"/>
<path d="M113.29 219.506C113.29 222.712 93.335 225.313 68.7327 225.313C44.1208 225.313 24.175 222.712 24.175 219.506C24.175 216.301 44.1304 213.7 68.7327 213.7C93.335 213.7 113.29 216.301 113.29 219.506Z" fill="url(#paint33_linear)"/>
<path d="M68.7328 225.706C46.9416 225.706 24.1465 223.614 24.1465 219.583C24.1465 219.362 24.223 218.969 24.4429 218.969C24.6628 218.969 24.5672 219.276 24.5672 219.497C24.5672 222.05 42.7058 224.9 68.7328 224.9C94.7598 224.9 112.898 222.05 112.898 219.497C112.898 219.276 112.937 219.065 113.157 219.065C113.376 219.065 113.329 219.362 113.329 219.583C113.319 223.624 90.5239 225.706 68.7328 225.706Z" fill="url(#paint34_linear)"/>
<path d="M64.5162 219.833C64.9561 219.526 65.415 219.228 65.9122 218.931C66.4094 218.633 67.0501 218.364 67.8246 218.134C68.6086 217.894 69.5839 217.702 70.76 217.549C71.9361 217.395 73.4086 217.318 75.1584 217.309C76.8795 217.299 78.4955 217.357 80.0062 217.472C81.517 217.587 82.8461 217.769 83.9935 218C85.1409 218.24 86.0684 218.527 86.795 218.873C87.5122 219.218 87.9329 219.612 88.0763 220.063L93.0962 220.111C93.4596 220.111 93.7847 220.14 94.062 220.197C94.3393 220.255 94.4827 220.332 94.4827 220.418V220.831L88.0285 220.773C87.799 221.282 87.2253 221.742 86.2978 222.165C85.3799 222.587 84.1943 222.952 82.76 223.259L80.4078 222.932C80.1975 222.904 80.0253 222.856 79.8915 222.808C79.7576 222.76 79.6907 222.702 79.6907 222.645C79.6907 222.568 79.8724 222.472 80.2357 222.376C80.599 222.27 81.0102 222.146 81.4692 221.992C81.9281 221.838 82.3775 221.666 82.8174 221.455C83.2572 221.253 83.5441 221.003 83.697 220.716L68.4748 220.562C68.0732 220.86 67.6238 221.147 67.1266 221.435C66.6294 221.723 65.9696 221.973 65.1473 222.203C64.325 222.433 63.3019 222.616 62.0875 222.76C60.8636 222.904 59.3242 222.98 57.4692 222.99C56.0732 223 54.7154 222.942 53.3864 222.827C52.0573 222.712 50.8716 222.549 49.839 222.318C48.8063 222.098 47.9649 221.81 47.2955 221.483C46.6358 221.147 46.2629 220.773 46.1864 220.341L42.0557 220.303C41.6924 220.303 41.3673 220.274 41.0804 220.217C40.7936 220.159 40.6501 220.092 40.6501 219.996V219.583L46.3011 219.641C46.5497 219.199 47.0661 218.825 47.8406 218.499C48.6246 218.172 49.5808 217.884 50.7091 217.635L52.6023 217.894C53.176 217.971 53.4629 218.067 53.4629 218.182C53.4629 218.24 53.3481 218.316 53.1091 218.403C52.87 218.489 52.5832 218.595 52.2581 218.719C51.933 218.844 51.6175 218.979 51.321 219.142C51.0151 219.305 50.7856 219.487 50.6326 219.698L64.5162 219.833ZM50.5848 220.389C50.6995 220.658 50.9481 220.898 51.3306 221.09C51.7131 221.291 52.1912 221.445 52.7649 221.579C53.3386 221.704 53.9888 221.8 54.6963 221.858C55.4135 221.915 56.1688 221.944 56.9529 221.944C57.8708 221.944 58.6644 221.896 59.3433 221.829C60.0222 221.752 60.615 221.656 61.1314 221.522C61.6477 221.397 62.0971 221.243 62.4796 221.071C62.862 220.898 63.1967 220.716 63.5122 220.524L50.5848 220.389ZM83.7257 220.025C83.611 219.746 83.3337 219.506 82.9034 219.305C82.4731 219.094 81.9186 218.921 81.2492 218.787C80.5799 218.643 79.8054 218.537 78.9066 218.47C78.0174 218.403 77.0421 218.364 75.9616 218.374C75.0054 218.374 74.1831 218.422 73.4947 218.499C72.8062 218.575 72.2134 218.691 71.7066 218.825C71.1999 218.959 70.7696 219.122 70.4254 219.305C70.0716 219.487 69.7369 219.679 69.4405 219.89L83.7257 220.025Z" fill="#FCB048"/>
<path d="M68.7327 214.324C48.8635 214.324 28.1719 216.08 24.8635 219.478C24.9974 219.593 25.1121 219.727 25.2269 219.861C28.0189 217.501 45.0961 215.13 68.7327 215.13C92.9717 215.13 110.326 217.625 112.43 220.044C112.535 219.909 112.64 219.785 112.764 219.669C110.03 216.147 88.9558 214.324 68.7327 214.324Z" fill="url(#paint35_linear)"/>
<path d="M30.658 209.084V219.007C30.658 222.213 50.6133 224.813 75.2156 224.813C99.8275 224.813 119.773 222.213 119.773 219.007V209.084H30.658Z" fill="url(#paint36_linear)"/>
<path d="M75.2156 214.89C99.8241 214.89 119.773 212.291 119.773 209.084C119.773 205.877 99.8241 203.278 75.2156 203.278C50.6071 203.278 30.658 205.877 30.658 209.084C30.658 212.291 50.6071 214.89 75.2156 214.89Z" fill="url(#paint37_linear)"/>
<path d="M75.2157 215.293C53.4245 215.293 30.6294 213.201 30.6294 209.17C30.6294 208.95 30.7059 208.556 30.9258 208.556C31.1457 208.556 31.0501 208.863 31.0501 209.084C31.0501 211.637 49.1887 214.487 75.2157 214.487C101.243 214.487 119.381 211.637 119.381 209.084C119.381 208.863 119.42 208.652 119.639 208.652C119.859 208.652 119.802 208.95 119.802 209.17C119.802 213.201 97.0069 215.293 75.2157 215.293Z" fill="url(#paint38_linear)"/>
<path d="M71.0086 209.41C71.4485 209.103 71.9074 208.806 72.4046 208.508C72.9019 208.211 73.5425 207.942 74.317 207.712C75.101 207.472 76.0763 207.28 77.2524 207.126C78.4285 206.973 79.901 206.896 81.6508 206.886C83.3719 206.877 84.9879 206.934 86.4986 207.049C88.0094 207.165 89.3384 207.347 90.4859 207.577C91.6333 207.817 92.5607 208.105 93.2874 208.451C94.0046 208.796 94.4253 209.19 94.5687 209.641L99.5886 209.689C99.952 209.689 100.277 209.717 100.554 209.775C100.832 209.833 100.975 209.909 100.975 209.996V210.408L94.5209 210.351C94.2914 210.859 93.7177 211.32 92.7902 211.742C91.8723 212.165 90.6866 212.529 89.2524 212.836L86.9002 212.51C86.6898 212.481 86.5177 212.433 86.3839 212.385C86.25 212.337 86.1831 212.28 86.1831 212.222C86.1831 212.145 86.3648 212.05 86.7281 211.954C87.0914 211.848 87.5026 211.723 87.9616 211.57C88.4205 211.416 88.8699 211.243 89.3098 211.032C89.7496 210.831 90.0365 210.581 90.1894 210.293L74.9672 210.14C74.5656 210.437 74.1162 210.725 73.619 211.013C73.1218 211.301 72.462 211.55 71.6397 211.781C70.8174 212.011 69.7943 212.193 68.58 212.337C67.3561 212.481 65.8166 212.558 63.9616 212.568C62.5656 212.577 61.2079 212.52 59.8788 212.405C58.5497 212.289 57.3641 212.126 56.3314 211.896C55.2987 211.666 54.4573 211.387 53.788 211.061C53.1282 210.725 52.7553 210.351 52.6788 209.919L48.5482 209.881C48.1848 209.881 47.8597 209.852 47.5729 209.794C47.286 209.737 47.1426 209.669 47.1426 209.573V209.161L52.7936 209.218C53.0422 208.777 53.5585 208.403 54.333 208.076C55.1171 207.75 56.0732 207.462 57.2015 207.213L59.0947 207.472C59.6684 207.548 59.9553 207.644 59.9553 207.76C59.9553 207.817 59.8405 207.894 59.6015 207.98C59.3625 208.067 59.0756 208.172 58.7505 208.297C58.4254 208.422 58.1099 208.556 57.8135 208.719C57.5075 208.882 57.278 209.065 57.125 209.276L71.0086 209.41ZM57.0676 209.977C57.1824 210.245 57.431 210.485 57.8135 210.677C58.1959 210.879 58.674 211.032 59.2477 211.167C59.8214 211.291 60.4716 211.387 61.1792 211.445C61.8963 211.502 62.6517 211.531 63.4357 211.531C64.3537 211.531 65.1473 211.483 65.8262 211.416C66.5051 211.339 67.0979 211.243 67.6142 211.109C68.1306 210.984 68.58 210.831 68.9624 210.658C69.3449 210.485 69.6796 210.303 69.9951 210.111L57.0676 209.977ZM90.2181 209.602C90.1034 209.324 89.8261 209.084 89.3958 208.873C88.9655 208.662 88.411 208.489 87.7416 208.355C87.0723 208.211 86.2978 208.105 85.399 208.038C84.5098 207.971 83.5345 207.932 82.454 207.942C81.4978 207.942 80.6755 207.99 79.9871 208.067C79.2986 208.144 78.7058 208.259 78.199 208.393C77.6923 208.527 77.262 208.691 76.9178 208.873C76.564 209.055 76.2293 209.247 75.9329 209.458L90.2181 209.602Z" fill="#FCB048"/>
<path d="M75.2252 203.911C55.3559 203.911 34.6643 205.667 31.356 209.065C31.4898 209.18 31.6046 209.314 31.7193 209.449C34.5113 207.088 51.5886 204.717 75.2252 204.717C99.4641 204.717 116.819 207.213 118.922 209.631C119.027 209.497 119.133 209.372 119.257 209.257C116.522 205.725 95.4387 203.911 75.2252 203.911Z" fill="url(#paint39_linear)"/>
<path d="M25.8674 197.846V207.769C25.8674 210.974 45.8227 213.575 70.4251 213.575C95.0274 213.575 114.983 210.974 114.983 207.769V197.846H25.8674Z" fill="url(#paint40_linear)"/>
<path d="M114.992 197.846C114.992 201.051 95.0372 203.652 70.4348 203.652C45.8325 203.652 25.8772 201.051 25.8772 197.846C25.8772 194.64 45.8325 192.04 70.4348 192.04C95.0372 192.04 114.992 194.64 114.992 197.846Z" fill="url(#paint41_linear)"/>
<path d="M70.4252 204.045C48.634 204.045 25.8389 201.953 25.8389 197.923C25.8389 197.702 25.9154 197.308 26.1353 197.308C26.3552 197.308 26.2596 197.615 26.2596 197.836C26.2596 200.389 44.3982 203.239 70.4252 203.239C96.4522 203.239 114.591 200.389 114.591 197.836C114.591 197.615 114.629 197.404 114.849 197.404C115.069 197.404 115.011 197.702 115.011 197.923C115.011 201.963 92.2259 204.045 70.4252 204.045Z" fill="url(#paint42_linear)"/>
<path d="M66.2181 198.162C66.658 197.855 67.1169 197.558 67.6141 197.26C68.1113 196.963 68.752 196.694 69.5265 196.464C70.3105 196.224 71.2858 196.032 72.4619 195.878C73.638 195.725 75.1105 195.648 76.8603 195.638C78.5814 195.629 80.1974 195.686 81.7081 195.802C83.2189 195.917 84.5479 196.099 85.6954 196.329C86.8428 196.569 87.7702 196.857 88.4969 197.203C89.2141 197.548 89.6348 197.942 89.7782 198.393L94.7981 198.441C95.1615 198.441 95.4865 198.47 95.7638 198.527C96.0411 198.585 96.1846 198.662 96.1846 198.748V199.161L89.7304 199.103C89.5009 199.612 88.9272 200.072 87.9997 200.495C87.0818 200.917 85.8961 201.282 84.4619 201.589L82.1097 201.262C81.8993 201.234 81.7272 201.186 81.5934 201.138C81.4595 201.09 81.3926 201.032 81.3926 200.974C81.3926 200.898 81.5742 200.802 81.9376 200.706C82.3009 200.6 82.7121 200.475 83.1711 200.322C83.63 200.168 84.0794 199.996 84.5193 199.784C84.9591 199.583 85.2459 199.333 85.3989 199.045L70.1767 198.892C69.7751 199.189 69.3257 199.477 68.8285 199.765C68.3313 200.053 67.6715 200.303 66.8492 200.533C66.0269 200.763 65.0038 200.946 63.7894 201.09C62.5655 201.234 61.0261 201.31 59.1711 201.32C57.7751 201.329 56.4173 201.272 55.0883 201.157C53.7592 201.042 52.5735 200.878 51.5409 200.648C50.5082 200.418 49.6668 200.139 48.9974 199.813C48.3377 199.477 47.9648 199.103 47.8883 198.671L43.7576 198.633C43.3943 198.633 43.0692 198.604 42.7823 198.546C42.4955 198.489 42.3521 198.422 42.3521 198.326V197.913L48.003 197.971C48.2516 197.529 48.768 197.155 49.5425 196.828C50.3265 196.502 51.2827 196.214 52.411 195.965L54.3042 196.224C54.8779 196.301 55.1648 196.397 55.1648 196.512C55.1648 196.569 55.05 196.646 54.811 196.733C54.5719 196.819 54.2851 196.924 53.96 197.049C53.6349 197.174 53.3194 197.308 53.0229 197.471C52.717 197.635 52.4875 197.817 52.3345 198.028L66.2181 198.162ZM52.2867 198.729C52.4014 198.997 52.65 199.237 53.0325 199.429C53.415 199.631 53.8931 199.784 54.4668 199.919C55.0405 200.043 55.6907 200.139 56.3982 200.197C57.1154 200.255 57.8707 200.283 58.6548 200.283C59.5727 200.283 60.3663 200.235 61.0452 200.168C61.7241 200.091 62.3169 199.996 62.8333 199.861C63.3496 199.736 63.799 199.583 64.1815 199.41C64.5639 199.237 64.8986 199.055 65.2141 198.863L52.2867 198.729ZM85.4276 198.364C85.3129 198.086 85.0356 197.846 84.6053 197.635C84.175 197.424 83.6205 197.251 82.9511 197.116C82.2818 196.972 81.5073 196.867 80.6085 196.8C79.7193 196.733 78.744 196.694 77.6635 196.704C76.7073 196.704 75.885 196.752 75.1966 196.828C74.5081 196.905 73.9153 197.02 73.4085 197.155C72.9018 197.289 72.4715 197.452 72.1273 197.635C71.7735 197.817 71.4388 198.009 71.1424 198.22L85.4276 198.364Z" fill="#FCB048"/>
<path d="M70.4346 192.663C50.5654 192.663 29.8738 194.42 26.5654 197.817C26.6993 197.932 26.814 198.066 26.9288 198.201C29.7208 195.84 46.798 193.469 70.4346 193.469C94.6736 193.469 112.028 195.965 114.132 198.383C114.237 198.249 114.342 198.124 114.466 198.009C111.732 194.487 90.6577 192.663 70.4346 192.663Z" fill="url(#paint43_linear)"/>
<path d="M13.4758 187.423V197.347C13.4758 200.552 33.4311 203.153 58.0335 203.153C82.6453 203.153 102.591 200.552 102.591 197.347V187.423H13.4758Z" fill="url(#paint44_linear)"/>
<path d="M58.0427 193.23C82.6512 193.23 102.6 190.63 102.6 187.423C102.6 184.217 82.6512 181.617 58.0427 181.617C33.4342 181.617 13.4851 184.217 13.4851 187.423C13.4851 190.63 33.4342 193.23 58.0427 193.23Z" fill="url(#paint45_linear)"/>
<path d="M58.0429 193.623C36.2517 193.623 13.4565 191.531 13.4565 187.5C13.4565 187.279 13.533 186.886 13.753 186.886C13.9729 186.886 13.8773 187.193 13.8773 187.414C13.8773 189.967 32.0159 192.817 58.0429 192.817C84.0699 192.817 102.209 189.967 102.209 187.414C102.209 187.193 102.247 186.982 102.467 186.982C102.687 186.982 102.639 187.279 102.639 187.5C102.629 191.541 79.8341 193.623 58.0429 193.623Z" fill="url(#paint46_linear)"/>
<path d="M53.826 187.75C54.2659 187.443 54.7248 187.145 55.222 186.848C55.7193 186.55 56.3599 186.281 57.1344 186.051C57.9184 185.811 58.8937 185.619 60.0698 185.466C61.2459 185.312 62.7184 185.235 64.4682 185.226C66.1893 185.216 67.8053 185.274 69.316 185.389C70.8268 185.504 72.1559 185.686 73.3033 185.917C74.4507 186.157 75.3782 186.444 76.1049 186.79C76.822 187.135 77.2427 187.529 77.3861 187.98L82.406 188.028C82.7694 188.028 83.0945 188.057 83.3718 188.114C83.6491 188.172 83.7925 188.249 83.7925 188.335V188.748L77.3383 188.681C77.1088 189.189 76.5351 189.65 75.6076 190.072C74.6897 190.494 73.5041 190.859 72.0698 191.166L69.7176 190.84C69.5073 190.811 69.3352 190.763 69.2013 190.715C69.0674 190.667 69.0005 190.61 69.0005 190.552C69.0005 190.475 69.1822 190.379 69.5455 190.283C69.9089 190.178 70.32 190.053 70.779 189.899C71.2379 189.746 71.6873 189.573 72.1272 189.362C72.567 189.16 72.8539 188.911 73.0069 188.623L57.7846 188.469C57.383 188.767 56.9336 189.055 56.4364 189.343C55.9392 189.631 55.2794 189.88 54.4571 190.11C53.6348 190.341 52.6117 190.523 51.3974 190.667C50.1735 190.811 48.634 190.888 46.779 190.897C45.383 190.907 44.0253 190.849 42.6962 190.734C41.3671 190.619 40.1814 190.456 39.1488 190.226C38.1161 190.005 37.2747 189.717 36.6054 189.391C35.9456 189.055 35.5727 188.681 35.4962 188.249L31.3655 188.21C31.0022 188.21 30.6771 188.181 30.3902 188.124C30.1034 188.066 29.96 187.999 29.96 187.903V187.491L35.6109 187.548C35.8595 187.107 36.3759 186.732 37.1504 186.406C37.9344 186.08 38.8906 185.792 40.0189 185.542L41.9121 185.801C42.4858 185.878 42.7727 185.974 42.7727 186.089C42.7727 186.147 42.6579 186.224 42.4189 186.31C42.1798 186.396 41.893 186.502 41.5679 186.627C41.2428 186.752 40.9273 186.886 40.6308 187.049C40.3249 187.212 40.0954 187.395 39.9424 187.606L53.826 187.75ZM39.8946 188.306C40.0093 188.575 40.2579 188.815 40.6404 189.007C41.0229 189.208 41.501 189.362 42.0747 189.496C42.6484 189.621 43.2986 189.717 44.0061 189.775C44.7233 189.832 45.4786 189.861 46.2627 189.861C47.1806 189.861 47.9743 189.813 48.6531 189.746C49.332 189.669 49.9248 189.573 50.4412 189.439C50.9575 189.314 51.4069 189.16 51.7894 188.988C52.1719 188.815 52.5065 188.633 52.822 188.441L39.8946 188.306ZM73.0451 187.942C72.9304 187.663 72.6531 187.423 72.2228 187.222C71.7925 187.011 71.2379 186.838 70.5686 186.704C69.8993 186.56 69.1248 186.454 68.226 186.387C67.3368 186.32 66.3615 186.291 65.281 186.291C64.3248 186.291 63.5025 186.339 62.8141 186.416C62.1256 186.492 61.5328 186.608 61.026 186.742C60.5192 186.876 60.089 187.039 59.7447 187.222C59.391 187.404 59.0563 187.596 58.7599 187.807L73.0451 187.942Z" fill="#FCB048"/>
<path d="M58.0428 182.25C38.1735 182.25 17.4819 184.007 14.1736 187.404C14.3074 187.529 14.4222 187.654 14.5369 187.788C17.329 185.427 34.4062 183.057 58.0428 183.057C82.2817 183.057 99.6363 185.552 101.74 187.97C101.845 187.836 101.95 187.711 102.075 187.596C99.3399 184.064 78.2658 182.25 58.0428 182.25Z" fill="url(#paint47_linear)"/>
<path d="M24.1655 177.03V186.953C24.1655 190.159 44.1208 192.759 68.7232 192.759C93.335 192.759 113.281 190.159 113.281 186.953V177.03H24.1655Z" fill="url(#paint48_linear)"/>
<path d="M68.7327 182.836C93.3412 182.836 113.29 180.236 113.29 177.03C113.29 173.823 93.3412 171.224 68.7327 171.224C44.1242 171.224 24.175 173.823 24.175 177.03C24.175 180.236 44.1242 182.836 68.7327 182.836Z" fill="url(#paint49_linear)"/>
<path d="M68.7328 183.239C46.9416 183.239 24.1465 181.147 24.1465 177.116C24.1465 176.895 24.223 176.502 24.4429 176.502C24.6628 176.502 24.5672 176.809 24.5672 177.03C24.5672 179.583 42.7058 182.433 68.7328 182.433C94.7598 182.433 112.898 179.583 112.898 177.03C112.898 176.809 112.937 176.598 113.157 176.598C113.376 176.598 113.329 176.895 113.329 177.116C113.319 181.147 90.5239 183.239 68.7328 183.239Z" fill="url(#paint50_linear)"/>
<path d="M64.5162 177.356C64.9561 177.049 65.415 176.752 65.9122 176.454C66.4094 176.156 67.0501 175.888 67.8246 175.657C68.6086 175.418 69.5839 175.226 70.76 175.072C71.9361 174.918 73.4086 174.842 75.1584 174.832C76.8795 174.822 78.4955 174.88 80.0062 174.995C81.517 175.11 82.8461 175.293 83.9935 175.523C85.1409 175.763 86.0684 176.051 86.795 176.396C87.5122 176.742 87.9329 177.135 88.0763 177.586L93.0962 177.634C93.4596 177.634 93.7847 177.663 94.062 177.721C94.3393 177.778 94.4827 177.855 94.4827 177.942V178.354L88.0285 178.287C87.799 178.796 87.2253 179.256 86.2978 179.679C85.3799 180.101 84.1943 180.466 82.76 180.773L80.4078 180.446C80.1975 180.418 80.0253 180.37 79.8915 180.322C79.7576 180.274 79.6907 180.216 79.6907 180.159C79.6907 180.082 79.8724 179.986 80.2357 179.89C80.599 179.784 81.0102 179.659 81.4692 179.506C81.9281 179.352 82.3775 179.18 82.8174 178.968C83.2572 178.767 83.5441 178.517 83.697 178.229L68.4748 178.076C68.0732 178.373 67.6238 178.661 67.1266 178.949C66.6294 179.237 65.9696 179.487 65.1473 179.717C64.325 179.947 63.3019 180.13 62.0875 180.274C60.8636 180.418 59.3242 180.494 57.4692 180.504C56.0732 180.514 54.7154 180.456 53.3864 180.341C52.0573 180.226 50.8716 180.063 49.839 179.832C48.8063 179.611 47.9649 179.324 47.2955 178.997C46.6358 178.661 46.2629 178.287 46.1864 177.855L42.0557 177.817C41.6924 177.817 41.3673 177.788 41.0804 177.73C40.7936 177.673 40.6501 177.606 40.6501 177.51V177.097L46.3011 177.155C46.5497 176.713 47.0661 176.339 47.8406 176.013C48.6246 175.686 49.5808 175.398 50.7091 175.149L52.6023 175.408C53.176 175.485 53.4629 175.581 53.4629 175.696C53.4629 175.753 53.3481 175.83 53.1091 175.917C52.87 176.003 52.5832 176.109 52.2581 176.233C51.933 176.358 51.6175 176.492 51.321 176.656C51.0151 176.819 50.7856 177.001 50.6326 177.212L64.5162 177.356ZM50.5848 177.922C50.6995 178.191 50.9481 178.431 51.3306 178.623C51.7131 178.824 52.1912 178.978 52.7649 179.112C53.3386 179.237 53.9888 179.333 54.6963 179.391C55.4135 179.448 56.1688 179.477 56.9529 179.477C57.8708 179.477 58.6644 179.429 59.3433 179.362C60.0222 179.285 60.615 179.189 61.1314 179.055C61.6477 178.93 62.0971 178.777 62.4796 178.604C62.862 178.431 63.1967 178.249 63.5122 178.057L50.5848 177.922ZM83.7257 177.548C83.611 177.27 83.3337 177.03 82.9034 176.819C82.4731 176.608 81.9186 176.435 81.2492 176.3C80.5799 176.156 79.8054 176.051 78.9066 175.984C78.0174 175.917 77.0421 175.888 75.9616 175.888C75.0054 175.888 74.1831 175.936 73.4947 176.013C72.8062 176.089 72.2134 176.204 71.7066 176.339C71.1999 176.473 70.7696 176.636 70.4254 176.819C70.0716 177.001 69.7369 177.193 69.4405 177.404L83.7257 177.548Z" fill="#FCB048"/>
<path d="M68.7327 171.857C48.8635 171.857 28.1719 173.613 24.8635 177.011C24.9974 177.135 25.1121 177.26 25.2269 177.394C28.0189 175.034 45.0961 172.663 68.7327 172.663C92.9717 172.663 110.326 175.158 112.43 177.577C112.535 177.442 112.64 177.318 112.764 177.203C110.03 173.68 88.9558 171.857 68.7327 171.857Z" fill="url(#paint51_linear)"/>
<path d="M18.6101 166.617V176.541C18.6101 179.746 38.5654 182.347 63.1678 182.347C87.7796 182.347 107.725 179.746 107.725 176.541V166.617H18.6101Z" fill="url(#paint52_linear)"/>
<path d="M63.1678 172.423C87.7763 172.423 107.725 169.824 107.725 166.617C107.725 163.411 87.7763 160.811 63.1678 160.811C38.5592 160.811 18.6101 163.411 18.6101 166.617C18.6101 169.824 38.5592 172.423 63.1678 172.423Z" fill="url(#paint53_linear)"/>
<path d="M63.1678 172.817C41.3767 172.817 18.5815 170.725 18.5815 166.694C18.5815 166.473 18.658 166.08 18.878 166.08C19.0979 166.08 19.0023 166.387 19.0023 166.608C19.0023 169.16 37.1408 172.011 63.1678 172.011C89.1948 172.011 107.333 169.16 107.333 166.608C107.333 166.387 107.372 166.176 107.592 166.176C107.812 166.176 107.764 166.473 107.764 166.694C107.754 170.734 84.9686 172.817 63.1678 172.817Z" fill="url(#paint54_linear)"/>
<path d="M58.9608 166.934C59.4006 166.627 59.8596 166.329 60.3568 166.032C60.854 165.734 61.4946 165.465 62.2691 165.235C63.0532 164.995 64.0285 164.803 65.2046 164.65C66.3807 164.496 67.8532 164.419 69.603 164.41C71.3241 164.4 72.94 164.458 74.4508 164.573C75.9615 164.688 77.2906 164.87 78.438 165.101C79.5854 165.331 80.5129 165.629 81.2396 165.974C81.9567 166.32 82.3774 166.713 82.5209 167.164L87.5408 167.212C87.9041 167.212 88.2292 167.241 88.5065 167.298C88.7838 167.356 88.9272 167.433 88.9272 167.519V167.932L82.473 167.874C82.2436 168.383 81.6699 168.844 80.7424 169.266C79.8244 169.688 78.6388 170.053 77.2045 170.36L74.8524 170.034C74.642 170.005 74.4699 169.957 74.336 169.909C74.2022 169.861 74.1352 169.803 74.1352 169.746C74.1352 169.669 74.3169 169.573 74.6802 169.477C75.0436 169.371 75.4547 169.247 75.9137 169.093C76.3727 168.939 76.8221 168.767 77.2619 168.556C77.7017 168.354 77.9886 168.105 78.1416 167.817L62.9193 167.663C62.5177 167.961 62.0683 168.249 61.5711 168.536C61.0739 168.824 60.4142 169.074 59.5919 169.304C58.7695 169.535 57.7464 169.717 56.5321 169.861C55.3082 170.005 53.7688 170.082 51.9138 170.091C50.5178 170.101 49.16 170.043 47.8309 169.928C46.5019 169.813 45.3162 169.65 44.2835 169.419C43.2509 169.189 42.4094 168.911 41.7401 168.584C41.0804 168.249 40.7075 167.874 40.631 167.442L36.5003 167.404C36.137 167.404 35.8119 167.375 35.525 167.318C35.2382 167.26 35.0947 167.193 35.0947 167.097V166.684L40.7457 166.742C40.9943 166.3 41.5106 165.926 42.2851 165.6C43.0692 165.273 44.0254 164.986 45.1537 164.736L47.0469 164.995C47.6206 165.072 47.9074 165.168 47.9074 165.283C47.9074 165.341 47.7927 165.417 47.5536 165.504C47.3146 165.59 47.0277 165.696 46.7027 165.82C46.3776 165.945 46.062 166.08 45.7656 166.243C45.4596 166.406 45.2301 166.588 45.0772 166.799L58.9608 166.934ZM45.0293 167.5C45.1441 167.769 45.3927 168.009 45.7752 168.201C46.1576 168.402 46.6357 168.556 47.2094 168.69C47.7831 168.815 48.4333 168.911 49.1409 168.968C49.858 169.026 50.6134 169.055 51.3975 169.055C52.3154 169.055 53.109 169.007 53.7879 168.939C54.4668 168.863 55.0596 168.767 55.5759 168.632C56.0923 168.508 56.5417 168.354 56.9241 168.181C57.3066 168.009 57.6413 167.826 57.9568 167.634L45.0293 167.5ZM78.1703 167.126C78.0555 166.847 77.7782 166.607 77.348 166.406C76.9177 166.195 76.3631 166.022 75.6938 165.888C75.0245 165.744 74.25 165.638 73.3512 165.571C72.4619 165.504 71.4866 165.475 70.4062 165.475C69.45 165.475 68.6277 165.523 67.9392 165.6C67.2508 165.677 66.658 165.792 66.1512 165.926C65.6444 166.06 65.2141 166.224 64.8699 166.406C64.5161 166.588 64.1815 166.78 63.8851 166.991L78.1703 167.126Z" fill="#FCB048"/>
<path d="M63.1773 161.435C43.308 161.435 22.6165 163.191 19.3081 166.588C19.442 166.704 19.5567 166.838 19.6714 166.972C22.4635 164.611 39.5407 162.241 63.1773 162.241C87.4163 162.241 104.771 164.736 106.874 167.155C106.98 167.02 107.085 166.895 107.209 166.78C104.474 163.258 83.4004 161.435 63.1773 161.435Z" fill="url(#paint55_linear)"/>
<path d="M120.404 173.604L112.353 179.353C109.753 181.214 119.209 199.036 133.466 219.161C147.732 239.286 161.405 254.104 164.006 252.242L172.057 246.493L120.404 173.604Z" fill="url(#paint56_linear)"/>
<path d="M172.066 246.503C169.466 248.365 155.792 233.547 141.526 213.422C127.26 193.297 117.804 175.466 120.414 173.614C123.015 171.752 136.688 186.57 150.954 206.695C165.211 226.819 174.667 244.641 172.066 246.503Z" fill="url(#paint57_linear)"/>
<path d="M141.201 213.652C128.57 195.821 117.058 175.974 120.328 173.642C120.509 173.518 120.873 173.354 120.997 173.537C121.121 173.719 120.825 173.815 120.643 173.94C118.568 175.418 126.772 191.905 141.851 213.192C156.94 234.478 169.762 247.664 171.837 246.176C172.018 246.052 172.21 245.956 172.334 246.138C172.458 246.32 172.191 246.445 172.009 246.57C168.739 248.902 153.832 231.474 141.201 213.652Z" fill="url(#paint58_linear)"/>
<path d="M143.534 206.8C144.031 206.983 144.548 207.184 145.074 207.424C145.6 207.654 146.192 208.029 146.833 208.528C147.483 209.027 148.21 209.718 149.013 210.591C149.816 211.464 150.734 212.626 151.757 214.055C152.761 215.457 153.651 216.81 154.435 218.115C155.209 219.42 155.84 220.61 156.318 221.685C156.787 222.76 157.093 223.691 157.236 224.478C157.37 225.265 157.294 225.841 157.007 226.215L159.875 230.351C160.086 230.649 160.248 230.927 160.363 231.186C160.478 231.445 160.497 231.599 160.43 231.656L160.095 231.896L156.404 226.589C155.859 226.695 155.152 226.493 154.272 225.985C153.392 225.476 152.417 224.718 151.337 223.729L150.237 221.618C150.141 221.426 150.074 221.263 150.036 221.119C149.998 220.975 150.007 220.898 150.055 220.86C150.122 220.812 150.294 220.908 150.591 221.148C150.887 221.388 151.222 221.647 151.614 221.935C151.996 222.223 152.407 222.482 152.828 222.722C153.249 222.962 153.622 223.057 153.937 223.019L145.236 210.476C144.768 210.322 144.27 210.121 143.754 209.881C143.238 209.641 142.645 209.247 141.985 208.71C141.325 208.173 140.58 207.443 139.757 206.522C138.935 205.601 137.979 204.391 136.898 202.875C136.086 201.733 135.34 200.591 134.661 199.439C133.982 198.288 133.437 197.222 133.016 196.243C132.605 195.265 132.337 194.41 132.223 193.681C132.108 192.952 132.204 192.424 132.51 192.117L130.148 188.71C129.937 188.412 129.775 188.134 129.651 187.865C129.526 187.597 129.507 187.443 129.584 187.385L129.918 187.146L133.15 191.8C133.647 191.752 134.259 191.944 134.976 192.405C135.694 192.856 136.478 193.47 137.338 194.247L138.227 195.946C138.495 196.464 138.581 196.752 138.495 196.81C138.447 196.848 138.323 196.79 138.113 196.647C137.902 196.503 137.654 196.33 137.367 196.138C137.08 195.946 136.784 195.764 136.478 195.62C136.172 195.466 135.885 195.38 135.627 195.38L143.534 206.8ZM134.996 195.725C134.843 195.975 134.795 196.32 134.862 196.743C134.919 197.174 135.072 197.654 135.302 198.201C135.531 198.748 135.827 199.324 136.191 199.948C136.564 200.572 136.975 201.205 137.434 201.838C137.969 202.587 138.466 203.211 138.916 203.729C139.365 204.238 139.796 204.67 140.197 205.015C140.599 205.361 140.981 205.649 141.345 205.86C141.708 206.071 142.052 206.244 142.387 206.378L134.996 195.725ZM154.511 222.626C154.674 222.376 154.702 222.011 154.626 221.532C154.54 221.061 154.368 220.505 154.09 219.881C153.823 219.257 153.45 218.556 152.991 217.789C152.532 217.021 151.987 216.205 151.365 215.332C150.811 214.555 150.294 213.902 149.835 213.393C149.376 212.875 148.937 212.453 148.535 212.117C148.133 211.781 147.751 211.522 147.407 211.34C147.053 211.157 146.709 210.994 146.364 210.869L154.511 222.626Z" fill="#FCB048"/>
<path d="M150.438 207.059C138.926 190.811 125.501 174.909 120.825 174.17C120.806 174.343 120.768 174.516 120.72 174.688C124.248 175.6 136.086 188.201 149.778 207.529C163.824 227.357 171.856 243 171.12 246.119C171.292 246.129 171.455 246.148 171.617 246.176C172.898 241.887 162.161 223.595 150.438 207.059Z" fill="url(#paint59_linear)"/>
<path d="M78.9735 118.709C81.4022 117.999 84.6436 122.471 87.3496 126.194C91.3847 131.761 96.0986 138.267 94.8365 146.07C93.5839 153.757 87.0245 159.736 85.1504 158.882C83.5536 158.152 86.6229 152.98 84.2707 146.07C82.3679 140.494 79.2221 140.494 77.109 135.024C74.4795 128.239 75.9903 119.582 78.9735 118.709Z" fill="url(#paint60_linear)"/>
<path d="M80.1783 154.093C92.6851 157.145 100.927 162.03 105.737 165.494C108.347 167.366 109.552 168.537 110.202 170.245C113.912 179.967 94.8747 194.65 92.8381 196.195C91.9488 194.122 91.0691 192.049 90.1799 189.976C92.1496 179.141 95.4197 175.744 98.1639 174.727C98.9289 174.448 100.22 174.141 100.191 173.776C100.134 172.913 92.905 174.141 85.9919 171.608C79.0979 169.074 72.1752 162.673 73.4182 158.44C73.6477 157.663 74.5847 155.437 80.1783 154.093Z" fill="url(#paint61_linear)"/>
<path d="M92.312 225.12C92.312 225.12 91.1455 225.533 91.1455 226.464C91.1455 227.385 92.3216 231.464 93.6124 232.903C94.8937 234.353 95.018 232.193 94.9319 230.802C94.8554 229.41 94.5112 226.301 94.1957 225.696C93.8706 225.092 92.312 225.12 92.312 225.12Z" fill="url(#paint62_linear)"/>
<path d="M96.0508 168.306C98.3265 168.258 103.652 167.836 105.067 170.475C106.253 172.682 104.178 176.022 102.907 178.076C99.4452 183.661 96.0795 184.237 93.7082 187.663C92.7902 188.988 91.9584 190.849 91.7002 193.498C91.1934 192.318 90.6962 191.147 90.1895 189.966C92.1592 179.131 95.4293 175.734 98.1735 174.717C98.9384 174.439 100.229 174.131 100.201 173.767C100.143 172.903 92.9145 174.131 86.0014 171.598C79.7194 169.295 73.4373 163.776 73.3035 159.602C83.2381 166.771 90.7249 168.412 96.0508 168.306Z" fill="url(#paint63_linear)"/>
<path d="M91.6333 221.195C91.7002 222.616 91.8245 223.806 91.9297 224.698C92.1687 226.656 92.3887 227.424 92.6946 228.134C92.9624 228.748 93.6221 230.092 93.9376 229.996C94.2532 229.9 93.9281 228.412 93.6795 224.286C93.6412 223.691 93.5361 221.781 93.5361 221.781L91.6333 221.195Z" fill="url(#paint64_linear)"/>
<path d="M72.9688 154.909C80.1783 159.266 84.854 164.227 87.5696 167.577C90.7823 171.531 95.6683 177.538 97.4373 186.512C98.3839 191.291 97.9153 195.581 96.9496 203.959C95.9934 212.28 94.6166 219.055 93.5361 223.681C92.9815 223.902 92.4269 224.132 91.8723 224.353C90.3903 221.618 88.4492 217.28 87.7512 211.742C86.6134 202.673 89.9887 199.794 88.3727 193.364C86.9672 187.798 82.8939 184.381 74.7568 177.548C68.0636 171.934 61.8963 168.604 59.6111 161.607C59.219 160.417 58.8939 158.959 59.525 157.625C60.8828 154.746 66.113 153.748 72.9688 154.909Z" fill="url(#paint65_linear)"/>
<path d="M67.2126 119.227C69.0867 118.824 72.156 118.901 75.0915 116.588C75.9712 115.887 79.0978 113.421 78.7249 109.88C78.3903 106.77 75.4548 105.091 75.0915 104.889C73.007 103.738 70.9321 103.997 68.6373 104.313C65.6541 104.726 64.6596 105.542 62.5848 106.098C57.4501 107.49 55.7194 104.592 50.5561 104.832C43.9585 105.148 43.3848 110.033 37.8295 110.158C31.5952 110.292 30.4 104.169 24.2423 103.133C15.6941 101.693 2.76664 110.926 3.0248 121.569C3.17779 127.721 7.73873 134.765 13.5618 136.876C16.9562 138.105 20.6184 137.721 21.6702 139.938C22.416 141.511 20.7427 142.73 20.8957 145.475C21.0965 149.016 24.1371 151.502 24.6247 151.905C29.1761 155.629 39.3976 153.748 46.3681 148.479C58.9513 138.978 57.039 121.425 67.2126 119.227Z" fill="url(#paint66_linear)"/>
<path d="M52.7648 117.96C57.0006 117.433 61.8867 117.039 67.3177 116.962C78.7918 116.809 80.4364 118.268 80.8571 119.342C81.6412 121.358 80.3026 122.365 81.0579 125.878C81.5169 127.98 81.0866 128.939 81.9663 131.195C82.8269 133.392 82.148 134.573 81.3926 139.736C80.4173 146.329 79.9775 149.688 81.8133 152.346C83.0946 154.199 84.5193 154.352 84.3854 155.226C84.0986 157.097 77.654 156.061 69.4978 159.65C67.1361 160.686 64.9656 161.972 63.1393 163.047C58.8747 165.562 58.0811 166.521 56.1114 167.663C49.858 171.262 40.478 171.617 35.5537 167.26C33.7178 165.638 32.3792 163.249 32.9816 162.375C33.8039 161.185 37.466 163.892 40.8222 162.241C43.0501 161.147 42.6294 159.381 45.2015 157.299C48.2995 154.794 50.4509 156.109 52.564 154.477C55.8532 151.934 54.3616 145.84 53.4341 135.638C53.0516 131.406 52.6692 125.369 52.7648 117.96Z" fill="url(#paint67_linear)"/>
<path d="M65.1854 115.59C63.6173 116.569 61.093 117.836 60.8157 118.181C60.5384 118.527 68.4746 119.889 73.418 117.385C73.418 117.385 74.1829 116.953 71.2093 116.358C70.5782 116.233 70.7025 114.995 70.779 113.709L70.1861 112.596C70.1766 112.605 66.7439 114.611 65.1854 115.59Z" fill="url(#paint68_linear)"/>
<path d="M69.1346 111.847C69.1346 111.847 68.5226 114.458 70.8175 115.753C72.8732 116.914 76.3442 112.164 75.694 110.408C75.474 109.822 74.6995 109.064 73.8963 108.815C73.3322 108.632 71.1808 108.709 70.2533 110.523C70.0143 109.995 69.584 109.717 69.2876 109.803C68.9147 109.918 68.8669 110.59 68.8573 110.744C68.8095 111.262 69.0198 111.674 69.1346 111.847Z" fill="url(#paint69_linear)"/>
<path opacity="0.3" d="M72.6914 153.748C70.3297 154.727 70.0141 156.857 66.744 158.057C63.6269 159.208 62.5847 157.769 59.4771 158.719C54.811 160.149 53.023 164.669 52.3154 164.247C51.6652 163.853 52.2867 159.535 55.2891 156.732C58.7313 153.517 62.4508 154.986 64.65 151.646C65.5106 150.35 66.1703 148.268 65.4245 146.675C64.411 144.506 61.7624 145.264 60.3568 143.469C57.8325 140.254 63.7417 134.448 62.1162 129.534C61.466 127.577 59.4198 125.12 52.7839 123.479C52.87 128.402 53.1568 132.51 53.4341 135.629C54.3616 145.84 55.8532 151.924 52.564 154.467C50.4509 156.099 48.2995 154.784 45.2015 157.289C42.6294 159.371 43.0501 161.137 40.8222 162.231C37.4565 163.882 33.7943 161.176 32.9816 162.366C32.3792 163.239 33.7178 165.629 35.5537 167.251C40.478 171.608 49.858 171.262 56.1114 167.654C58.0907 166.512 58.8747 165.552 63.1393 163.038C64.9656 161.963 67.1361 160.686 69.4978 159.64C75.2253 157.126 80.0922 156.876 82.5974 156.31C77.6253 153.009 74.6038 152.951 72.6914 153.748Z" fill="url(#paint70_linear)"/>
<path d="M93.1727 157.97L67.2222 159.237C66.8684 159.256 66.5433 159.448 66.352 159.755L65.6349 160.916C65.2811 161.492 65.7114 162.231 66.3807 162.212L93.8707 161.156L93.1727 157.97Z" fill="url(#paint71_linear)"/>
<path d="M120.156 143.469L93.3447 143.987C92.5511 144.007 91.8244 144.438 91.4324 145.129L82.1479 161.521L110.46 160.389C111.235 160.36 111.942 159.938 112.344 159.266L120.949 144.841C121.322 144.237 120.873 143.45 120.156 143.469Z" fill="url(#paint72_linear)"/>
<path opacity="0.3" d="M91.4419 145.129C91.8339 144.438 92.5606 144.007 93.3542 143.987L93.9375 143.978C94.0236 144.851 94.2913 145.638 94.8172 146.281C96.4714 148.287 99.2156 147.049 101.262 149.17C103.509 151.502 101.434 154.266 103.442 156.435C105.555 158.719 108.978 156.857 112.918 158.316L112.353 159.266C111.952 159.938 111.244 160.36 110.47 160.389L82.1575 161.521L91.4419 145.129Z" fill="url(#paint73_linear)"/>
<path d="M70.4255 157.107C70.7601 156.214 71.1043 155.312 71.439 154.419C67.7099 153.393 62.5466 151.876 57.2494 149.976C55.9394 149.506 55.4613 148.901 55.1076 148.431C52.392 144.813 59.3052 138.44 59.1809 130.168C59.0948 124.429 55.6334 117.874 52.5833 117.797C46.3777 117.644 32.6948 144.074 44.2167 155.35C49.9347 160.945 60.6151 161.598 70.4255 157.107Z" fill="url(#paint74_linear)"/>
<path d="M71.439 154.419C73.7816 153.172 76.5928 154.448 76.7649 154.535C77.2812 154.774 78.0271 155.216 78.7824 155.993C78.8685 156.108 79.882 157.529 79.5187 157.98C79.2223 158.345 78.0749 158.037 76.6884 157.183C76.1051 157.107 75.2446 157.03 74.2119 157.126C72.3187 157.298 71.4486 157.903 70.7601 157.385C70.2534 157.001 70.0812 156.204 70.2629 155.6C70.4637 154.947 71.047 154.631 71.439 154.419Z" fill="url(#paint75_linear)"/>
<defs>
<linearGradient id="paint0_linear" x1="20.2103" y1="93.5265" x2="147.998" y2="208.01" gradientUnits="userSpaceOnUse">
<stop offset="0.00359712" stop-color="#E38DDD"/>
<stop offset="1" stop-color="#9571F6"/>
</linearGradient>
<linearGradient id="paint1_linear" x1="66.8632" y1="-1.82892" x2="128.934" y2="155.257" gradientUnits="userSpaceOnUse">
<stop stop-color="#AA80F9"/>
<stop offset="0.9964" stop-color="#6165D7"/>
</linearGradient>
<linearGradient id="paint2_linear" x1="35.5046" y1="37.7093" x2="131.454" y2="160.267" gradientUnits="userSpaceOnUse">
<stop stop-color="#FF9085"/>
<stop offset="1" stop-color="#FB6FBB"/>
</linearGradient>
<linearGradient id="paint3_linear" x1="271.643" y1="22.317" x2="212.98" y2="76.5565" gradientUnits="userSpaceOnUse">
<stop stop-color="#FFC444"/>
<stop offset="0.9964" stop-color="#F36F56"/>
</linearGradient>
<linearGradient id="paint4_linear" x1="81.1151" y1="127.481" x2="235.978" y2="127.481" gradientUnits="userSpaceOnUse">
<stop stop-color="white"/>
<stop offset="0.9964" stop-color="#EBEFF2"/>
</linearGradient>
<linearGradient id="paint5_linear" x1="276.574" y1="23.904" x2="217.226" y2="78.7762" gradientUnits="userSpaceOnUse">
<stop stop-color="#FFC444"/>
<stop offset="0.9964" stop-color="#F36F56"/>
</linearGradient>
<linearGradient id="paint6_linear" x1="202.801" y1="80.0388" x2="8.20802" y2="271.494" gradientUnits="userSpaceOnUse">
<stop stop-color="#FFC444"/>
<stop offset="0.9964" stop-color="#F36F56"/>
</linearGradient>
<linearGradient id="paint7_linear" x1="190.084" y1="75.294" x2="1.1827" y2="261.149" gradientUnits="userSpaceOnUse">
<stop stop-color="#FFC444"/>
<stop offset="0.9964" stop-color="#F36F56"/>
</linearGradient>
<linearGradient id="paint8_linear" x1="172.408" y1="52.945" x2="70.4968" y2="297.382" gradientUnits="userSpaceOnUse">
<stop stop-color="#444B8C"/>
<stop offset="0.9964" stop-color="#26264F"/>
</linearGradient>
<linearGradient id="paint9_linear" x1="37.8491" y1="153.934" x2="223.375" y2="153.934" gradientUnits="userSpaceOnUse">
<stop stop-color="#444B8C"/>
<stop offset="0.9964" stop-color="#26264F"/>
</linearGradient>
<linearGradient id="paint10_linear" x1="111.723" y1="19.6533" x2="-10.1104" y2="311.875" gradientUnits="userSpaceOnUse">
<stop stop-color="#444B8C"/>
<stop offset="0.9964" stop-color="#26264F"/>
</linearGradient>
<linearGradient id="paint11_linear" x1="98.9207" y1="-8.05346" x2="-29.3154" y2="299.524" gradientUnits="userSpaceOnUse">
<stop stop-color="#444B8C"/>
<stop offset="0.9964" stop-color="#26264F"/>
</linearGradient>
<linearGradient id="paint12_linear" x1="267.353" y1="62.2608" x2="139.739" y2="368.348" gradientUnits="userSpaceOnUse">
<stop stop-color="#444B8C"/>
<stop offset="0.9964" stop-color="#26264F"/>
</linearGradient>
<linearGradient id="paint13_linear" x1="249.997" y1="45.7264" x2="127.508" y2="339.518" gradientUnits="userSpaceOnUse">
<stop stop-color="#444B8C"/>
<stop offset="0.9964" stop-color="#26264F"/>
</linearGradient>
<linearGradient id="paint14_linear" x1="140.7" y1="129.648" x2="120.546" y2="177.988" gradientUnits="userSpaceOnUse">
<stop stop-color="#444B8C"/>
<stop offset="0.9964" stop-color="#26264F"/>
</linearGradient>
<linearGradient id="paint15_linear" x1="112.39" y1="153.778" x2="147.598" y2="153.778" gradientUnits="userSpaceOnUse">
<stop stop-color="#444B8C"/>
<stop offset="0.9964" stop-color="#26264F"/>
</linearGradient>
<linearGradient id="paint16_linear" x1="56.2934" y1="99.7519" x2="198.605" y2="215.865" gradientUnits="userSpaceOnUse">
<stop stop-color="#444B8C"/>
<stop offset="0.9964" stop-color="#26264F"/>
</linearGradient>
<linearGradient id="paint17_linear" x1="172.334" y1="46.3318" x2="70.423" y2="290.769" gradientUnits="userSpaceOnUse">
<stop stop-color="#AA80F9"/>
<stop offset="0.9964" stop-color="#6165D7"/>
</linearGradient>
<linearGradient id="paint18_linear" x1="111.649" y1="13.0408" x2="-10.1844" y2="305.262" gradientUnits="userSpaceOnUse">
<stop stop-color="#AA80F9"/>
<stop offset="0.9964" stop-color="#6165D7"/>
</linearGradient>
<linearGradient id="paint19_linear" x1="98.8469" y1="-14.6657" x2="-29.3887" y2="292.912" gradientUnits="userSpaceOnUse">
<stop stop-color="#AA80F9"/>
<stop offset="0.9964" stop-color="#6165D7"/>
</linearGradient>
<linearGradient id="paint20_linear" x1="267.28" y1="55.6484" x2="139.666" y2="361.736" gradientUnits="userSpaceOnUse">
<stop stop-color="#AA80F9"/>
<stop offset="0.9964" stop-color="#6165D7"/>
</linearGradient>
<linearGradient id="paint21_linear" x1="249.923" y1="39.1145" x2="127.435" y2="332.905" gradientUnits="userSpaceOnUse">
<stop stop-color="#AA80F9"/>
<stop offset="0.9964" stop-color="#6165D7"/>
</linearGradient>
<linearGradient id="paint22_linear" x1="140.626" y1="123.035" x2="120.472" y2="171.375" gradientUnits="userSpaceOnUse">
<stop stop-color="#AA80F9"/>
<stop offset="0.9964" stop-color="#6165D7"/>
</linearGradient>
<linearGradient id="paint23_linear" x1="56.2196" y1="93.1394" x2="198.531" y2="209.253" gradientUnits="userSpaceOnUse">
<stop stop-color="#AA80F9"/>
<stop offset="0.9964" stop-color="#6165D7"/>
</linearGradient>
<linearGradient id="paint24_linear" x1="18.2475" y1="248.176" x2="120.777" y2="248.176" gradientUnits="userSpaceOnUse">
<stop stop-color="#FCB148"/>
<stop offset="0.0520724" stop-color="#FDBA46"/>
<stop offset="0.1424" stop-color="#FFC244"/>
<stop offset="0.3183" stop-color="#FFC444"/>
<stop offset="0.4849" stop-color="#FDB946"/>
<stop offset="0.7754" stop-color="#F99C4D"/>
<stop offset="0.8658" stop-color="#F8924F"/>
<stop offset="1" stop-color="#F8924F"/>
</linearGradient>
<linearGradient id="paint25_linear" x1="69.9839" y1="236.584" x2="75.4285" y2="281.996" gradientUnits="userSpaceOnUse">
<stop stop-color="#FFDB44"/>
<stop offset="1" stop-color="#FEEF06"/>
</linearGradient>
<linearGradient id="paint26_linear" x1="69.7488" y1="234.559" x2="71.4209" y2="248.506" gradientUnits="userSpaceOnUse">
<stop stop-color="#FFDB44"/>
<stop offset="1" stop-color="#FEEF06"/>
</linearGradient>
<linearGradient id="paint27_linear" x1="71.3092" y1="247.045" x2="69.643" y2="233.147" gradientUnits="userSpaceOnUse">
<stop offset="0.00359712" stop-color="#F36F56"/>
<stop offset="0.3059" stop-color="#F99C4C"/>
<stop offset="0.545" stop-color="#FDB946"/>
<stop offset="0.6817" stop-color="#FFC444"/>
<stop offset="0.8038" stop-color="#FFC244"/>
<stop offset="0.8667" stop-color="#FEBA46"/>
<stop offset="0.916" stop-color="#FCAD49"/>
<stop offset="0.958" stop-color="#F99A4D"/>
<stop offset="0.9955" stop-color="#F58152"/>
<stop offset="1" stop-color="#F57E53"/>
</linearGradient>
<linearGradient id="paint28_linear" x1="5.86019" y1="237.756" x2="108.39" y2="237.756" gradientUnits="userSpaceOnUse">
<stop stop-color="#FCB148"/>
<stop offset="0.0520724" stop-color="#FDBA46"/>
<stop offset="0.1424" stop-color="#FFC244"/>
<stop offset="0.3183" stop-color="#FFC444"/>
<stop offset="0.4849" stop-color="#FDB946"/>
<stop offset="0.7754" stop-color="#F99C4D"/>
<stop offset="0.8658" stop-color="#F8924F"/>
<stop offset="1" stop-color="#F8924F"/>
</linearGradient>
<linearGradient id="paint29_linear" x1="57.596" y1="226.164" x2="63.0407" y2="271.576" gradientUnits="userSpaceOnUse">
<stop stop-color="#FFDB44"/>
<stop offset="1" stop-color="#FEEF06"/>
</linearGradient>
<linearGradient id="paint30_linear" x1="57.3612" y1="224.139" x2="59.0333" y2="238.085" gradientUnits="userSpaceOnUse">
<stop stop-color="#FFDB44"/>
<stop offset="1" stop-color="#FEEF06"/>
</linearGradient>
<linearGradient id="paint31_linear" x1="58.9215" y1="236.625" x2="57.2553" y2="222.727" gradientUnits="userSpaceOnUse">
<stop offset="0.00359712" stop-color="#F36F56"/>
<stop offset="0.3059" stop-color="#F99C4C"/>
<stop offset="0.545" stop-color="#FDB946"/>
<stop offset="0.6817" stop-color="#FFC444"/>
<stop offset="0.8038" stop-color="#FFC244"/>
<stop offset="0.8667" stop-color="#FEBA46"/>
<stop offset="0.916" stop-color="#FCAD49"/>
<stop offset="0.958" stop-color="#F99A4D"/>
<stop offset="0.9955" stop-color="#F58152"/>
<stop offset="1" stop-color="#F57E53"/>
</linearGradient>
<linearGradient id="paint32_linear" x1="16.5488" y1="227.367" x2="119.079" y2="227.367" gradientUnits="userSpaceOnUse">
<stop stop-color="#FCB148"/>
<stop offset="0.0520724" stop-color="#FDBA46"/>
<stop offset="0.1424" stop-color="#FFC244"/>
<stop offset="0.3183" stop-color="#FFC444"/>
<stop offset="0.4849" stop-color="#FDB946"/>
<stop offset="0.7754" stop-color="#F99C4D"/>
<stop offset="0.8658" stop-color="#F8924F"/>
<stop offset="1" stop-color="#F8924F"/>
</linearGradient>
<linearGradient id="paint33_linear" x1="68.2849" y1="215.775" x2="73.7295" y2="261.187" gradientUnits="userSpaceOnUse">
<stop stop-color="#FFDB44"/>
<stop offset="1" stop-color="#FEEF06"/>
</linearGradient>
<linearGradient id="paint34_linear" x1="68.05" y1="213.749" x2="69.7222" y2="227.696" gradientUnits="userSpaceOnUse">
<stop stop-color="#FFDB44"/>
<stop offset="1" stop-color="#FEEF06"/>
</linearGradient>
<linearGradient id="paint35_linear" x1="69.6104" y1="226.235" x2="67.9442" y2="212.338" gradientUnits="userSpaceOnUse">
<stop offset="0.00359712" stop-color="#F36F56"/>
<stop offset="0.3059" stop-color="#F99C4C"/>
<stop offset="0.545" stop-color="#FDB946"/>
<stop offset="0.6817" stop-color="#FFC444"/>
<stop offset="0.8038" stop-color="#FFC244"/>
<stop offset="0.8667" stop-color="#FEBA46"/>
<stop offset="0.916" stop-color="#FCAD49"/>
<stop offset="0.958" stop-color="#F99A4D"/>
<stop offset="0.9955" stop-color="#F58152"/>
<stop offset="1" stop-color="#F57E53"/>
</linearGradient>
<linearGradient id="paint36_linear" x1="23.0353" y1="216.947" x2="125.565" y2="216.947" gradientUnits="userSpaceOnUse">
<stop stop-color="#FCB148"/>
<stop offset="0.0520724" stop-color="#FDBA46"/>
<stop offset="0.1424" stop-color="#FFC244"/>
<stop offset="0.3183" stop-color="#FFC444"/>
<stop offset="0.4849" stop-color="#FDB946"/>
<stop offset="0.7754" stop-color="#F99C4D"/>
<stop offset="0.8658" stop-color="#F8924F"/>
<stop offset="1" stop-color="#F8924F"/>
</linearGradient>
<linearGradient id="paint37_linear" x1="74.7714" y1="205.354" x2="80.216" y2="250.767" gradientUnits="userSpaceOnUse">
<stop stop-color="#FFDB44"/>
<stop offset="1" stop-color="#FEEF06"/>
</linearGradient>
<linearGradient id="paint38_linear" x1="74.5364" y1="203.329" x2="76.2086" y2="217.276" gradientUnits="userSpaceOnUse">
<stop stop-color="#FFDB44"/>
<stop offset="1" stop-color="#FEEF06"/>
</linearGradient>
<linearGradient id="paint39_linear" x1="76.0968" y1="215.815" x2="74.4306" y2="201.918" gradientUnits="userSpaceOnUse">
<stop offset="0.00359712" stop-color="#F36F56"/>
<stop offset="0.3059" stop-color="#F99C4C"/>
<stop offset="0.545" stop-color="#FDB946"/>
<stop offset="0.6817" stop-color="#FFC444"/>
<stop offset="0.8038" stop-color="#FFC244"/>
<stop offset="0.8667" stop-color="#FEBA46"/>
<stop offset="0.916" stop-color="#FCAD49"/>
<stop offset="0.958" stop-color="#F99A4D"/>
<stop offset="0.9955" stop-color="#F58152"/>
<stop offset="1" stop-color="#F57E53"/>
</linearGradient>
<linearGradient id="paint40_linear" x1="18.2475" y1="205.704" x2="120.777" y2="205.704" gradientUnits="userSpaceOnUse">
<stop stop-color="#FCB148"/>
<stop offset="0.0520724" stop-color="#FDBA46"/>
<stop offset="0.1424" stop-color="#FFC244"/>
<stop offset="0.3183" stop-color="#FFC444"/>
<stop offset="0.4849" stop-color="#FDB946"/>
<stop offset="0.7754" stop-color="#F99C4D"/>
<stop offset="0.8658" stop-color="#F8924F"/>
<stop offset="1" stop-color="#F8924F"/>
</linearGradient>
<linearGradient id="paint41_linear" x1="69.9839" y1="194.112" x2="75.4285" y2="239.524" gradientUnits="userSpaceOnUse">
<stop stop-color="#FFDB44"/>
<stop offset="1" stop-color="#FEEF06"/>
</linearGradient>
<linearGradient id="paint42_linear" x1="69.7488" y1="192.087" x2="71.4209" y2="206.034" gradientUnits="userSpaceOnUse">
<stop stop-color="#FFDB44"/>
<stop offset="1" stop-color="#FEEF06"/>
</linearGradient>
<linearGradient id="paint43_linear" x1="71.3092" y1="204.573" x2="69.643" y2="190.675" gradientUnits="userSpaceOnUse">
<stop offset="0.00359712" stop-color="#F36F56"/>
<stop offset="0.3059" stop-color="#F99C4C"/>
<stop offset="0.545" stop-color="#FDB946"/>
<stop offset="0.6817" stop-color="#FFC444"/>
<stop offset="0.8038" stop-color="#FFC244"/>
<stop offset="0.8667" stop-color="#FEBA46"/>
<stop offset="0.916" stop-color="#FCAD49"/>
<stop offset="0.958" stop-color="#F99A4D"/>
<stop offset="0.9955" stop-color="#F58152"/>
<stop offset="1" stop-color="#F57E53"/>
</linearGradient>
<linearGradient id="paint44_linear" x1="5.86019" y1="195.284" x2="108.39" y2="195.284" gradientUnits="userSpaceOnUse">
<stop stop-color="#FCB148"/>
<stop offset="0.0520724" stop-color="#FDBA46"/>
<stop offset="0.1424" stop-color="#FFC244"/>
<stop offset="0.3183" stop-color="#FFC444"/>
<stop offset="0.4849" stop-color="#FDB946"/>
<stop offset="0.7754" stop-color="#F99C4D"/>
<stop offset="0.8658" stop-color="#F8924F"/>
<stop offset="1" stop-color="#F8924F"/>
</linearGradient>
<linearGradient id="paint45_linear" x1="57.596" y1="183.692" x2="63.0407" y2="229.104" gradientUnits="userSpaceOnUse">
<stop stop-color="#FFDB44"/>
<stop offset="1" stop-color="#FEEF06"/>
</linearGradient>
<linearGradient id="paint46_linear" x1="57.3612" y1="181.667" x2="59.0333" y2="195.614" gradientUnits="userSpaceOnUse">
<stop stop-color="#FFDB44"/>
<stop offset="1" stop-color="#FEEF06"/>
</linearGradient>
<linearGradient id="paint47_linear" x1="58.9215" y1="194.153" x2="57.2553" y2="180.255" gradientUnits="userSpaceOnUse">
<stop offset="0.00359712" stop-color="#F36F56"/>
<stop offset="0.3059" stop-color="#F99C4C"/>
<stop offset="0.545" stop-color="#FDB946"/>
<stop offset="0.6817" stop-color="#FFC444"/>
<stop offset="0.8038" stop-color="#FFC244"/>
<stop offset="0.8667" stop-color="#FEBA46"/>
<stop offset="0.916" stop-color="#FCAD49"/>
<stop offset="0.958" stop-color="#F99A4D"/>
<stop offset="0.9955" stop-color="#F58152"/>
<stop offset="1" stop-color="#F57E53"/>
</linearGradient>
<linearGradient id="paint48_linear" x1="16.5488" y1="184.895" x2="119.079" y2="184.895" gradientUnits="userSpaceOnUse">
<stop stop-color="#FCB148"/>
<stop offset="0.0520724" stop-color="#FDBA46"/>
<stop offset="0.1424" stop-color="#FFC244"/>
<stop offset="0.3183" stop-color="#FFC444"/>
<stop offset="0.4849" stop-color="#FDB946"/>
<stop offset="0.7754" stop-color="#F99C4D"/>
<stop offset="0.8658" stop-color="#F8924F"/>
<stop offset="1" stop-color="#F8924F"/>
</linearGradient>
<linearGradient id="paint49_linear" x1="68.2849" y1="173.302" x2="73.7295" y2="218.715" gradientUnits="userSpaceOnUse">
<stop stop-color="#FFDB44"/>
<stop offset="1" stop-color="#FEEF06"/>
</linearGradient>
<linearGradient id="paint50_linear" x1="68.05" y1="171.277" x2="69.7222" y2="185.224" gradientUnits="userSpaceOnUse">
<stop stop-color="#FFDB44"/>
<stop offset="1" stop-color="#FEEF06"/>
</linearGradient>
<linearGradient id="paint51_linear" x1="69.6104" y1="183.763" x2="67.9442" y2="169.865" gradientUnits="userSpaceOnUse">
<stop offset="0.00359712" stop-color="#F36F56"/>
<stop offset="0.3059" stop-color="#F99C4C"/>
<stop offset="0.545" stop-color="#FDB946"/>
<stop offset="0.6817" stop-color="#FFC444"/>
<stop offset="0.8038" stop-color="#FFC244"/>
<stop offset="0.8667" stop-color="#FEBA46"/>
<stop offset="0.916" stop-color="#FCAD49"/>
<stop offset="0.958" stop-color="#F99A4D"/>
<stop offset="0.9955" stop-color="#F58152"/>
<stop offset="1" stop-color="#F57E53"/>
</linearGradient>
<linearGradient id="paint52_linear" x1="10.989" y1="174.475" x2="113.519" y2="174.475" gradientUnits="userSpaceOnUse">
<stop stop-color="#FCB148"/>
<stop offset="0.0520724" stop-color="#FDBA46"/>
<stop offset="0.1424" stop-color="#FFC244"/>
<stop offset="0.3183" stop-color="#FFC444"/>
<stop offset="0.4849" stop-color="#FDB946"/>
<stop offset="0.7754" stop-color="#F99C4D"/>
<stop offset="0.8658" stop-color="#F8924F"/>
<stop offset="1" stop-color="#F8924F"/>
</linearGradient>
<linearGradient id="paint53_linear" x1="62.7252" y1="162.882" x2="68.1698" y2="208.295" gradientUnits="userSpaceOnUse">
<stop stop-color="#FFDB44"/>
<stop offset="1" stop-color="#FEEF06"/>
</linearGradient>
<linearGradient id="paint54_linear" x1="62.4902" y1="160.857" x2="64.1624" y2="174.804" gradientUnits="userSpaceOnUse">
<stop stop-color="#FFDB44"/>
<stop offset="1" stop-color="#FEEF06"/>
</linearGradient>
<linearGradient id="paint55_linear" x1="64.0506" y1="173.343" x2="62.3845" y2="159.446" gradientUnits="userSpaceOnUse">
<stop offset="0.00359712" stop-color="#F36F56"/>
<stop offset="0.3059" stop-color="#F99C4C"/>
<stop offset="0.545" stop-color="#FDB946"/>
<stop offset="0.6817" stop-color="#FFC444"/>
<stop offset="0.8038" stop-color="#FFC244"/>
<stop offset="0.8667" stop-color="#FEBA46"/>
<stop offset="0.916" stop-color="#FCAD49"/>
<stop offset="0.958" stop-color="#F99A4D"/>
<stop offset="0.9955" stop-color="#F58152"/>
<stop offset="1" stop-color="#F57E53"/>
</linearGradient>
<linearGradient id="paint56_linear" x1="109.608" y1="171.93" x2="169.326" y2="255.583" gradientUnits="userSpaceOnUse">
<stop stop-color="#FCB148"/>
<stop offset="0.0520724" stop-color="#FDBA46"/>
<stop offset="0.1424" stop-color="#FFC244"/>
<stop offset="0.3183" stop-color="#FFC444"/>
<stop offset="0.4849" stop-color="#FDB946"/>
<stop offset="0.7754" stop-color="#F99C4D"/>
<stop offset="0.8658" stop-color="#F8924F"/>
<stop offset="1" stop-color="#F8924F"/>
</linearGradient>
<linearGradient id="paint57_linear" x1="149.005" y1="207.528" x2="115.156" y2="238.145" gradientUnits="userSpaceOnUse">
<stop stop-color="#FFDB44"/>
<stop offset="1" stop-color="#FEEF06"/>
</linearGradient>
<linearGradient id="paint58_linear" x1="150.513" y1="206.162" x2="140.118" y2="215.564" gradientUnits="userSpaceOnUse">
<stop stop-color="#FFDB44"/>
<stop offset="1" stop-color="#FEEF06"/>
</linearGradient>
<linearGradient id="paint59_linear" x1="141.282" y1="214.673" x2="151.64" y2="205.304" gradientUnits="userSpaceOnUse">
<stop offset="0.00359712" stop-color="#F36F56"/>
<stop offset="0.3059" stop-color="#F99C4C"/>
<stop offset="0.545" stop-color="#FDB946"/>
<stop offset="0.6817" stop-color="#FFC444"/>
<stop offset="0.8038" stop-color="#FFC244"/>
<stop offset="0.8667" stop-color="#FEBA46"/>
<stop offset="0.916" stop-color="#FCAD49"/>
<stop offset="0.958" stop-color="#F99A4D"/>
<stop offset="0.9955" stop-color="#F58152"/>
<stop offset="1" stop-color="#F57E53"/>
</linearGradient>
<linearGradient id="paint60_linear" x1="95.0437" y1="138.797" x2="75.7554" y2="138.797" gradientUnits="userSpaceOnUse">
<stop stop-color="#FF9085"/>
<stop offset="1" stop-color="#FB6FBB"/>
</linearGradient>
<linearGradient id="paint61_linear" x1="128.26" y1="175.146" x2="90.856" y2="175.146" gradientUnits="userSpaceOnUse">
<stop stop-color="#311944"/>
<stop offset="1" stop-color="#A03976"/>
</linearGradient>
<linearGradient id="paint62_linear" x1="96.1241" y1="216.692" x2="89.1302" y2="245.092" gradientUnits="userSpaceOnUse">
<stop stop-color="#444B8C"/>
<stop offset="0.9964" stop-color="#26264F"/>
</linearGradient>
<linearGradient id="paint63_linear" x1="110.678" y1="176.558" x2="73.2737" y2="176.558" gradientUnits="userSpaceOnUse">
<stop stop-color="#311944"/>
<stop offset="1" stop-color="#A03976"/>
</linearGradient>
<linearGradient id="paint64_linear" x1="91.6355" y1="225.594" x2="94.0677" y2="225.594" gradientUnits="userSpaceOnUse">
<stop stop-color="#FFC444"/>
<stop offset="0.9964" stop-color="#F36F56"/>
</linearGradient>
<linearGradient id="paint65_linear" x1="108.288" y1="151.836" x2="74.6029" y2="192.615" gradientUnits="userSpaceOnUse">
<stop stop-color="#311944"/>
<stop offset="1" stop-color="#A03976"/>
</linearGradient>
<linearGradient id="paint66_linear" x1="14.7215" y1="95.5394" x2="57.2738" y2="134.881" gradientUnits="userSpaceOnUse">
<stop stop-color="#311944"/>
<stop offset="1" stop-color="#6B3976"/>
</linearGradient>
<linearGradient id="paint67_linear" x1="50.4765" y1="153.049" x2="86.6171" y2="120.675" gradientUnits="userSpaceOnUse">
<stop stop-color="#FF9085"/>
<stop offset="1" stop-color="#FB6FBB"/>
</linearGradient>
<linearGradient id="paint68_linear" x1="60.8029" y1="115.735" x2="73.5035" y2="115.735" gradientUnits="userSpaceOnUse">
<stop stop-color="#FFC444"/>
<stop offset="0.9964" stop-color="#F36F56"/>
</linearGradient>
<linearGradient id="paint69_linear" x1="72.7022" y1="109" x2="52.3688" y2="206.241" gradientUnits="userSpaceOnUse">
<stop stop-color="#FFC444"/>
<stop offset="0.9964" stop-color="#F36F56"/>
</linearGradient>
<linearGradient id="paint70_linear" x1="51.6599" y1="154.37" x2="87.8006" y2="121.996" gradientUnits="userSpaceOnUse">
<stop stop-color="#FF9085"/>
<stop offset="1" stop-color="#FB6FBB"/>
</linearGradient>
<linearGradient id="paint71_linear" x1="65.4981" y1="160.088" x2="93.863" y2="160.088" gradientUnits="userSpaceOnUse">
<stop stop-color="#444B8C"/>
<stop offset="0.9964" stop-color="#26264F"/>
</linearGradient>
<linearGradient id="paint72_linear" x1="82.1533" y1="152.497" x2="121.086" y2="152.497" gradientUnits="userSpaceOnUse">
<stop stop-color="#444B8C"/>
<stop offset="0.9964" stop-color="#26264F"/>
</linearGradient>
<linearGradient id="paint73_linear" x1="112.002" y1="142.13" x2="93.3373" y2="160.577" gradientUnits="userSpaceOnUse">
<stop stop-color="#444B8C"/>
<stop offset="0.9964" stop-color="#26264F"/>
</linearGradient>
<linearGradient id="paint74_linear" x1="65.4036" y1="152.806" x2="37.7952" y2="125.739" gradientUnits="userSpaceOnUse">
<stop stop-color="#FF9085"/>
<stop offset="1" stop-color="#FB6FBB"/>
</linearGradient>
<linearGradient id="paint75_linear" x1="70.2018" y1="155.998" x2="79.6045" y2="155.998" gradientUnits="userSpaceOnUse">
<stop stop-color="#FFC444"/>
<stop offset="0.9964" stop-color="#F36F56"/>
</linearGradient>
</defs>
</svg>
